<svg width="428" height="645" viewBox="0 0 428 645" fill="none" xmlns="http://www.w3.org/2000/svg">
<path d="M5.54386 43.2728C6.43841 42.1357 8.15154 40.0316 5.7504 39.6595C5.20725 39.5754 4.6999 39.2562 4.16693 39.4977C2.52529 40.2418 1 41.8799 1 43.8275C1 46.9383 4.41177 47.6119 6.89019 47.5717C11.0717 47.5037 12.3439 43.4296 13.8207 40.1295C15.3126 36.7959 16.9697 33.5163 18.5176 30.2066C20.269 26.4616 23.1415 23.4782 24.9585 19.7675C25.7377 18.1763 26.7551 16.7751 27.7583 15.3222C29.3145 13.0685 30.4241 10.7949 31.5372 8.29607C32.4504 6.2459 33.463 4.37372 34.5817 2.43323C35.0341 1.64852 34.8641 0.44639 35.7292 1.28532C36.3859 1.92229 37.4308 2.34071 38.3147 2.50257C42.1792 3.21021 45.7329 3.95921 49.7126 3.64278C53.7376 3.32275 57.7604 2.74606 61.7225 1.97869C63.0694 1.71782 62.4953 2.03188 61.8602 2.84926C60.7829 4.23565 59.8631 5.70489 58.8309 7.10963C57.4849 8.94154 57.0112 11.1478 56.2148 13.2421C55.3393 15.5443 54.2974 17.7434 53.4609 20.0834C51.8444 24.6057 49.4864 28.7299 46.5686 32.5255C44.8777 34.7252 42.789 38.567 39.6228 38.4115C34.723 38.1708 38.0316 28.5256 40.3725 26.6396C41.6326 25.6243 43.0108 26.7173 43.1646 28.0802C43.3759 29.9529 42.7335 32.5192 40.9156 33.4346C38.9976 34.4004 37.5272 34.2845 39.0032 31.7936C39.8962 30.2865 40.4273 31.9452 40.7932 31.2081" stroke="#00ADB5" stroke-opacity="0.5" stroke-width="1.66333" stroke-linecap="round" stroke-linejoin="round"/>
<path d="M367.399 179.972C373.262 173.837 373.571 171.723 374.579 164.254C375.135 160.141 375.974 156.2 376.003 152.017C376.054 144.536 377.965 134.949 385.097 130.801C399.13 122.639 415.621 143.888 405.639 156.312C401.84 161.041 396.676 163.92 392.365 168.187C390.637 169.899 389.388 171.92 387.337 173.404C385.37 174.827 382.926 176.6 382.33 178.855C381.826 180.76 381.74 183.381 379.947 184.709C377.47 186.543 378.449 185.522 375.693 184.793C373.798 184.292 371.403 182.047 370.199 180.42C369.339 179.259 368.086 181.628 368.729 179.198C369.281 177.111 369.493 179.025 368.12 178.661" stroke="#00ADB5" stroke-opacity="0.5" stroke-width="1.66333" stroke-linecap="round" stroke-linejoin="round"/>
<path d="M374.404 188.955C370.949 186.845 361.228 181.601 362.813 185.326C364.726 189.821 366.461 188.28 369.809 190.012C371.521 190.898 371.81 196.982 369.764 196.567C366.841 195.975 365.957 191.599 363.027 190.824C360.359 190.118 359.622 193.679 360.892 195.346C362.57 197.548 365.466 196.425 366.21 199.359C367.387 203.997 361.425 201.716 359.935 200.305C358.433 198.884 357.159 196.948 356.096 195.746" stroke="#00ADB5" stroke-opacity="0.5" stroke-width="1.66333" stroke-linecap="round" stroke-linejoin="round"/>
<path d="M367.7 178.832C367.667 179.15 367.171 181.225 367.995 181.443C368.438 181.56 368.713 181.345 369.058 181.677C369.465 182.068 369.747 182.809 370.106 183.294C370.422 183.721 371.624 183.997 371.747 184.458C371.948 185.211 372.612 185.77 373.3 186.036C374.192 186.381 374.409 186.932 375.444 186.973C375.761 186.986 375.842 186.802 376.122 186.876C376.554 186.991 376.686 187.247 377.108 186.97C377.575 186.665 378.215 186.633 378.55 186.07C379.006 185.304 379.989 185.098 378.568 185.272" stroke="#00ADB5" stroke-opacity="0.5" stroke-width="1.66333" stroke-linecap="round" stroke-linejoin="round"/>
<path d="M393.808 148.586C392.237 148.179 390.914 147.937 389.939 149.459C389.276 150.495 388.975 151.606 388.664 152.781C388.362 153.924 388.82 155.028 388.536 156.104C388.16 157.526 387.084 156.992 386.007 157.17C384.99 157.339 384.241 157.507 383.506 158.291C382.778 159.069 382.683 160.918 382.488 161.921C382.321 162.784 382.247 164.692 381.471 165.254C381.05 165.559 379.15 165.699 380.515 165.146" stroke="#00ADB5" stroke-opacity="0.5" stroke-width="1.66333" stroke-linecap="round" stroke-linejoin="round"/>
<path d="M402.85 167.959C403.886 169.126 404.981 170.164 406.246 171.062C406.777 171.438 407.448 172.038 407.56 171.081" stroke="#00ADB5" stroke-opacity="0.5" stroke-width="1.66333" stroke-linecap="round" stroke-linejoin="round"/>
<path d="M410.611 157.065C412.695 158.189 414.747 159.378 416.796 160.556C417.137 160.752 416.54 159.601 416.516 159.565" stroke="#00ADB5" stroke-opacity="0.5" stroke-width="1.66333" stroke-linecap="round" stroke-linejoin="round"/>
<path d="M414.263 145.74C416.657 146.015 419.066 146.207 421.467 146.406C422.573 146.497 422.984 146.754 422.624 145.7" stroke="#00ADB5" stroke-opacity="0.5" stroke-width="1.66333" stroke-linecap="round" stroke-linejoin="round"/>
<path d="M405.036 130.259C406.942 130.42 408.603 130.53 410.467 130.142C411.339 129.961 412.204 129.694 413.092 129.596C414.148 129.48 414.138 129.598 413.242 128.677" stroke="#00ADB5" stroke-opacity="0.5" stroke-width="1.66333" stroke-linecap="round" stroke-linejoin="round"/>
<path d="M391.253 118.169C390.495 119.96 390.288 121.097 390.595 122.983C390.76 123.999 390.799 125.239 390.74 126.274C390.72 126.63 390.708 126.833 390.869 127.147C390.929 127.265 390.914 126.052 390.906 125.864" stroke="#00ADB5" stroke-opacity="0.5" stroke-width="1.66333" stroke-linecap="round" stroke-linejoin="round"/>
<path d="M375.866 122.073C375.935 124.165 376.273 126.244 376.257 128.317C376.249 129.365 376.076 129.384 375.913 128.278" stroke="#00ADB5" stroke-opacity="0.5" stroke-width="1.66333" stroke-linecap="round" stroke-linejoin="round"/>
<path d="M366.566 134.53C368.102 136.781 369.17 139.354 370.157 141.881C370.281 142.197 370.48 142.351 370.638 142.623C370.998 143.241 370.446 141.914 370.384 141.732" stroke="#00ADB5" stroke-opacity="0.5" stroke-width="1.66333" stroke-linecap="round" stroke-linejoin="round"/>
<path d="M314.983 623.949C305.542 634.244 295.486 648.672 280.276 640.398C273.049 636.467 269.82 623.504 272.056 616.295C273.912 610.315 274.073 602.237 281.252 599.966C286.892 598.182 293.012 600.103 295.787 605.636C303.667 621.352 281.088 625.593 271.466 621.161C258.333 615.112 250.63 576.906 265.256 568.949C277.795 562.126 281.132 578.036 271.898 584.771C258.91 594.245 249.511 592.381 240.813 576.805C234.022 564.644 241.016 547.751 250.654 540.3C252.656 538.753 261.653 526.713 262.72 528.395C273.25 544.987 244.211 558.698 231.365 552.659C216.605 545.721 201.75 538.531 194.446 523.767C190.519 515.827 186.028 489.724 185.965 498.582C185.887 509.667 184.769 524.636 177.901 534.041C175.857 536.839 169.547 545.933 175.18 536.988C180.981 527.775 186.306 519.794 190.082 510.168C190.923 508.026 188.801 504.188 188.271 502.072C187.821 500.279 193.807 503.886 194.562 504.153C201.079 506.457 207.809 505.355 214.307 503.535C220.107 501.91 227.249 497.96 230.644 500.795" stroke="#00ADB5" stroke-opacity="0.2" stroke-width="4" stroke-linecap="round" stroke-linejoin="round"/>
</svg>
