<svg width="570" height="570" viewBox="0 0 570 570" fill="none" xmlns="http://www.w3.org/2000/svg">
<ellipse cx="175" cy="555" rx="174" ry="12" fill="black" fill-opacity="0.5"/>
<path d="M183.686 414.091C182.377 414.284 180.837 414.386 180.525 415.945C180.284 417.153 180.375 418.396 181.099 419.444C182.336 421.234 184.174 422.279 186.388 421.91C188.367 421.581 191.086 419.787 191.086 417.559C191.086 416.303 190.181 415.039 189.433 414.099C188.631 413.092 187.938 412.032 186.928 411.208C185.566 410.097 184.465 409.988 183.24 411.298C182.57 412.015 181.936 412.993 181.643 413.932C181.498 414.395 181.605 414.766 181.605 415.23C181.605 415.848 181.49 414.936 181.605 414.63" stroke="#00ADB5" stroke-opacity="0.5" stroke-linecap="round" stroke-linejoin="round"/>
<path d="M190.469 417.63C191.583 418.619 192.527 419.513 194.497 419.561C195.876 419.595 197.254 419.251 198.546 418.88C199.472 418.615 202.438 417.21 200.034 417.097" stroke="#00ADB5" stroke-opacity="0.5" stroke-linecap="round" stroke-linejoin="round"/>
<path d="M201.955 409.003C200.485 410.626 198.457 413.807 199.219 416.245C199.487 417.102 199.876 417.679 200.379 418.412C201.393 419.886 202.963 419.426 204.388 419.041C205.42 418.762 206.647 417.883 207.043 416.883C207.588 415.503 206.451 413.345 205.501 412.395C204.44 411.334 203.6 410.043 202.418 409.114C202.103 408.867 201.864 408.599 201.454 408.69C200.993 408.793 200.803 409.234 201.416 409.234" stroke="#00ADB5" stroke-opacity="0.5" stroke-linecap="round" stroke-linejoin="round"/>
<path d="M305.866 186.582C304.557 186.776 303.017 186.878 302.706 188.437C302.464 189.645 302.556 190.888 303.28 191.936C304.517 193.726 306.355 194.771 308.568 194.402C310.548 194.072 313.266 192.279 313.266 190.051C313.266 188.795 312.362 187.531 311.613 186.591C310.811 185.583 310.118 184.524 309.108 183.7C307.746 182.589 306.646 182.48 305.421 183.79C304.751 184.507 304.117 185.485 303.823 186.424C303.679 186.887 303.785 187.258 303.785 187.722C303.785 188.34 303.67 187.428 303.785 187.122" stroke="#00ADB5" stroke-opacity="0.5" stroke-linecap="round" stroke-linejoin="round"/>
<path d="M312.65 190.122C313.764 191.111 314.708 192.005 316.677 192.053C318.056 192.087 319.435 191.743 320.727 191.372C321.652 191.107 324.618 189.702 322.215 189.589" stroke="#00ADB5" stroke-opacity="0.5" stroke-linecap="round" stroke-linejoin="round"/>
<path d="M324.135 181.495C322.666 183.118 320.637 186.299 321.399 188.737C321.667 189.594 322.056 190.171 322.559 190.903C323.573 192.377 325.143 191.918 326.568 191.533C327.601 191.254 328.828 190.375 329.223 189.375C329.769 187.994 328.631 185.837 327.681 184.887C326.62 183.826 325.78 182.535 324.598 181.606C324.283 181.359 324.045 181.091 323.634 181.182C323.173 181.285 322.983 181.726 323.596 181.726" stroke="#00ADB5" stroke-opacity="0.5" stroke-linecap="round" stroke-linejoin="round"/>
<path d="M193.125 139.395C200.672 135.8 206.772 129.855 212.907 124.249C217.728 119.843 222.784 115.49 228.105 111.688C229.155 110.937 230.638 109.428 232.057 110.071C233.464 110.709 234.274 112.445 235.386 113.473C238.123 116.005 240.585 119.099 242.835 122.074C245.313 125.349 241.598 127.162 239.301 129.306C236.692 131.742 234.2 134.254 231.351 136.403C228.642 138.446 226.466 141.262 223.986 143.575C220.207 147.1 216.672 150.853 212.904 154.381C210.661 156.481 208.087 158.196 205.927 160.371C205.17 161.133 204.47 162.141 203.597 162.775C202.896 163.285 201.926 161.325 201.676 160.956C199.695 158.026 196.626 156.021 194.686 152.957C193.467 151.03 192.646 148.652 191.186 146.892C190.489 146.052 188.747 144.161 189.51 142.934C190.29 141.681 192.503 141.081 193.71 140.184C194.651 139.484 195.795 138.621 196.866 138.134C197.644 137.781 198.408 137.154 199.104 136.672C200.936 135.402 198.995 135.945 197.756 136.417" stroke="#00ADB5" stroke-opacity="0.5" stroke-linecap="round" stroke-linejoin="round"/>
<path d="M194.278 145.148C198.872 147.992 202.993 152.108 206.58 156.167C206.67 156.27 207.543 156.878 207.41 157.103C207.153 157.538 204.171 155.575 203.887 155.379" stroke="#00ADB5" stroke-opacity="0.5" stroke-linecap="round" stroke-linejoin="round"/>
<path d="M198.832 141.036C202.557 142.102 204.777 144.132 207.784 146.303C209.124 147.27 210.488 148.143 211.69 149.281C212.255 149.815 212.657 150.518 213.179 151.094C213.894 151.883 210.974 150.178 210.63 149.981" stroke="#00ADB5" stroke-opacity="0.5" stroke-linecap="round" stroke-linejoin="round"/>
<path d="M204.244 137.848C206.851 140.201 209.471 142.521 212.159 144.778C213.18 145.636 214.34 146.423 215.222 147.434C216.788 149.227 214.737 146.9 214.041 146.243" stroke="#00ADB5" stroke-opacity="0.5" stroke-linecap="round" stroke-linejoin="round"/>
<path d="M207.896 135.606C209.83 136.781 211.849 137.92 213.486 139.505C214.158 140.156 214.715 140.922 215.433 141.524C216.317 142.266 217.092 143.132 217.982 143.853C219.25 144.88 219.441 145.18 217.935 143.891" stroke="#00ADB5" stroke-opacity="0.5" stroke-linecap="round" stroke-linejoin="round"/>
<path d="M212.604 132.154C214.737 133.824 216.712 135.519 218.495 137.555C219.285 138.457 219.922 139.498 220.924 140.19C221.843 140.824 222.486 141.007 221.411 139.977" stroke="#00ADB5" stroke-opacity="0.5" stroke-linecap="round" stroke-linejoin="round"/>
<path d="M217.137 128.637C219.015 130.048 220.866 131.336 222.367 133.154C223.053 133.986 223.595 134.942 224.362 135.709C225.92 137.268 224.849 136.482 223.722 135.424" stroke="#00ADB5" stroke-opacity="0.5" stroke-linecap="round" stroke-linejoin="round"/>
<path d="M221.317 124.987C223.954 127.509 226.162 130.463 228.803 132.954C230.582 134.632 228.034 131.944 227.617 131.466" stroke="#00ADB5" stroke-opacity="0.5" stroke-linecap="round" stroke-linejoin="round"/>
<path d="M226.421 122.085C228.641 121.179 230.943 120.099 232.135 117.884C232.464 117.274 232.888 116.742 233.023 116.054C233.209 115.109 233.172 115.515 232.472 116.126" stroke="#00ADB5" stroke-opacity="0.5" stroke-linecap="round" stroke-linejoin="round"/>
<path d="M229.994 125.133C231.754 123.5 233.721 121.716 235.01 119.644C235.653 118.61 236.878 117.348 235.165 118.843" stroke="#00ADB5" stroke-opacity="0.5" stroke-linecap="round" stroke-linejoin="round"/>
<path d="M235.635 128.555C237.238 126.813 238.665 125.192 240.141 123.371C240.617 122.782 242.07 122.018 240.322 122.485" stroke="#00ADB5" stroke-opacity="0.5" stroke-linecap="round" stroke-linejoin="round"/>
<path d="M234.36 127.674C236.038 126.236 237.935 124.562 239.265 122.747C239.62 122.262 239.893 121.723 240.218 121.219C240.762 120.376 240.796 120.661 239.971 120.748" stroke="#00ADB5" stroke-opacity="0.5" stroke-linecap="round" stroke-linejoin="round"/>
<path d="M198.808 148.053C207.168 144.657 209.231 135.44 216.043 130.228C216.872 129.594 217.545 128.889 218.512 128.45C219.158 128.157 219.956 128.016 220.544 127.641C220.903 127.411 223.882 125.135 221.812 126.076" stroke="#00ADB5" stroke-opacity="0.5" stroke-linecap="round" stroke-linejoin="round"/>
<path d="M194.915 145.588C195.854 144.447 196.687 143.471 197.877 142.646C198.072 142.51 198.373 142.488 198.534 142.307C198.852 141.949 199.334 141.425 199.456 140.964C199.939 139.145 202.297 139.481 203.55 138.569C204.741 137.702 205.888 136.823 207.103 135.966C208.441 135.022 209.06 134.194 210.135 132.984C211.122 131.872 212.081 130.748 213.126 129.696C213.981 128.835 215.324 128.052 215.868 126.95C216.482 125.707 218.052 124.284 219.465 124.514C219.95 124.594 223.515 126.66 221.185 125.339" stroke="#00ADB5" stroke-opacity="0.5" stroke-linecap="round" stroke-linejoin="round"/>
<path d="M202.48 150.033C208.763 146.72 212.249 139.495 216.492 134.037C218.055 132.027 220.288 130.691 221.924 128.716C222.624 127.871 224.169 126.974 222.372 126.989" stroke="#00ADB5" stroke-opacity="0.5" stroke-linecap="round" stroke-linejoin="round"/>
<path d="M204.723 152.08C210.416 148.58 214.06 142.069 218.202 136.91C220.086 134.562 221.905 132.166 223.812 129.837C224.682 128.776 226.198 128.113 224.252 129.2" stroke="#00ADB5" stroke-opacity="0.5" stroke-linecap="round" stroke-linejoin="round"/>
<path d="M206.966 155.732C210.518 152.268 213.386 148.53 216.292 144.523C218.059 142.087 219.587 139.348 221.662 137.155C222.853 135.896 223.769 134.422 224.85 133.088C225.286 132.55 225.586 131.924 226.034 131.391C227.042 130.19 226.339 131.276 225.637 131.928" stroke="#00ADB5" stroke-opacity="0.5" stroke-linecap="round" stroke-linejoin="round"/>
<path d="M207.801 157.25C209.569 155.518 212.159 153.852 213.338 151.605C213.766 150.79 214.825 148.821 215.568 148.322C216.551 147.662 217.019 146.259 217.733 145.377C218.478 144.458 219.207 143.561 220.015 142.687C220.772 141.867 221.015 140.428 221.952 139.723C222.997 138.937 223.505 137.72 224.339 136.782C225.06 135.97 226.433 135.129 227.328 134.508C227.824 134.165 228.17 133.696 228.732 133.441C229.872 132.923 229.132 133.188 228.089 133.149" stroke="#00ADB5" stroke-opacity="0.5" stroke-linecap="round" stroke-linejoin="round"/>
<path d="M226.278 122.734C227.74 123.119 229.543 123.384 230.876 124.181C231.736 124.695 232.485 125.211 230.919 124.275" stroke="#00ADB5" stroke-opacity="0.5" stroke-linecap="round" stroke-linejoin="round"/>
<path d="M227.796 120.293C229.882 120.838 231.357 121.449 233.057 122.558C234.17 123.283 233.991 123.082 232.833 122.384" stroke="#00ADB5" stroke-opacity="0.5" stroke-linecap="round" stroke-linejoin="round"/>
<path d="M230.327 117.83C232.118 118.837 233.856 119.982 235.708 120.859C236.797 121.375 236.226 121.339 235.385 120.933" stroke="#00ADB5" stroke-opacity="0.5" stroke-linecap="round" stroke-linejoin="round"/>
<path d="M231.768 115.862C233.651 116.719 235.388 117.573 237.122 118.652C237.913 119.144 237.195 119.176 236.595 118.778" stroke="#00ADB5" stroke-opacity="0.5" stroke-linecap="round" stroke-linejoin="round"/>
<path d="M227.202 121.876C228.625 120.184 230.052 118.581 231.348 116.847C231.716 116.355 233.958 113.612 232.989 115.015" stroke="#00ADB5" stroke-opacity="0.5" stroke-linecap="round" stroke-linejoin="round"/>
<path d="M228.697 124.846C230.548 123.209 233.216 121.027 233.814 118.581C233.99 117.862 234.371 117.143 234.93 116.647C235.497 116.145 236.09 115.919 235.243 116.765" stroke="#00ADB5" stroke-opacity="0.5" stroke-linecap="round" stroke-linejoin="round"/>
<path d="M227.212 124.791C229.186 122.664 230.874 121.235 231.989 118.616C232.279 117.935 232.611 117.372 233.086 116.836C233.59 116.269 234.313 115.738 233.34 116.753" stroke="#00ADB5" stroke-opacity="0.5" stroke-linecap="round" stroke-linejoin="round"/>
<path d="M234.547 125.838C235.456 126.414 236.368 126.948 237.313 127.428C237.703 127.626 237.22 127.243 237.054 127.18" stroke="#00ADB5" stroke-opacity="0.5" stroke-linecap="round" stroke-linejoin="round"/>
<path d="M236.319 122.99C236.38 123.042 239.954 126.105 239.32 125.422" stroke="#00ADB5" stroke-opacity="0.5" stroke-linecap="round" stroke-linejoin="round"/>
<path d="M238.442 121.88C239.23 122.638 241.645 124.857 240.795 124.168" stroke="#00ADB5" stroke-opacity="0.5" stroke-linecap="round" stroke-linejoin="round"/>
<path d="M233.491 127.047C234.798 125.831 237.663 123.42 238.365 121.55C238.642 120.813 239.909 119.866 238.717 120.879" stroke="#00ADB5" stroke-opacity="0.5" stroke-linecap="round" stroke-linejoin="round"/>
<path d="M233.656 127.41C233.78 127.51 236.279 130.201 236.812 128.896C237.084 128.23 237.438 127.362 238.105 126.995C239.276 126.351 239.492 124.322 240.69 123.778C242.05 123.16 241.923 122.125 240.657 121.758C240.159 121.613 240.552 120.633 240.035 120.71C239.562 120.781 239.312 120.606 238.783 120.703" stroke="#00ADB5" stroke-opacity="0.5" stroke-linecap="round" stroke-linejoin="round"/>
<path d="M226.113 122.371C226.97 124.009 227.132 124.602 228.515 125.285C228.888 125.47 229.376 125.214 229.659 125.358C230.219 125.642 231.327 125.648 231.746 125.132C232.587 124.093 232.897 123.423 234.185 122.791C234.999 122.393 235.653 121.452 236.029 120.673C236.442 119.816 237.187 119.171 237.624 118.311C237.81 117.945 236.309 117.002 236.295 116.368C236.292 116.188 234.51 116.183 234.213 116.033C233.854 115.85 233.689 115.593 233.517 115.214C233.265 114.659 232.819 115.348 232.142 115.4" stroke="#00ADB5" stroke-opacity="0.5" stroke-linecap="round" stroke-linejoin="round"/>
<path d="M196.434 143.147C198.458 143.916 200.224 144.908 202.046 146.006C203.629 146.96 205.417 147.467 206.989 148.391C208.108 149.049 209.27 150.551 210.096 151.537C210.371 151.866 210.577 152.173 210.772 152.544C211.22 153.394 210.754 151.339 210.707 151.114" stroke="#00ADB5" stroke-opacity="0.5" stroke-linecap="round" stroke-linejoin="round"/>
<path d="M215.982 127.701C216.544 128.291 218.817 131.545 218.368 129.099" stroke="#00ADB5" stroke-opacity="0.5" stroke-linecap="round" stroke-linejoin="round"/>
<path d="M220.661 353.572C220.902 354.811 221.514 355.616 221.989 356.744C222.312 357.511 222.916 358.106 223.253 358.859C223.616 359.672 224.161 360.628 224.667 361.352C225.102 361.972 225.386 362.56 225.935 363.109C226.903 364.077 227.636 365.232 228.61 366.187C230.025 367.575 232.421 369.386 234.482 369.272C235.144 369.235 235.877 369.44 236.527 369.342C237.084 369.258 237.761 369.23 238.319 369.326C239.236 369.485 240.232 369.325 241.109 369.515C241.583 369.618 242.099 369.468 242.578 369.557C243.2 369.672 243.929 369.701 244.562 369.701C246.636 369.701 248.705 369.688 250.774 369.426C251.895 369.283 253.005 369.655 254.115 369.458C255.156 369.272 256.543 369.464 257.523 369.035C258.727 368.508 259.924 367.68 260.854 366.75C261.321 366.284 261.674 365.727 261.99 365.15C262.405 364.393 262.636 363.576 263.053 362.821C264.506 360.186 265.335 357.253 266.512 354.507C266.789 353.859 267.245 353.335 267.578 352.737C267.662 352.586 267.7 352.393 267.837 352.247C268.35 351.704 267.367 351.646 266.915 351.441" stroke="#00ADB5" stroke-opacity="0.5" stroke-linecap="round" stroke-linejoin="round"/>
<path d="M220.43 353.687C221.46 352.341 222.333 351.351 223.829 350.59C225.081 349.952 226.38 349.195 227.512 348.362C229.251 347.084 231.645 346.514 233.762 346.129C236.067 345.71 238.335 345.22 240.681 345.22C241.406 345.22 242.124 345.438 242.85 345.45C243.719 345.465 244.59 345.492 245.455 345.566C246.783 345.679 248.145 345.652 249.474 345.681C251.329 345.721 253.105 346.681 254.959 346.83C256.063 346.918 257.349 347.083 258.422 347.383C258.824 347.496 259.282 347.572 259.657 347.754C260.124 347.981 260.451 348.365 260.88 348.631C262.263 349.492 263.81 349.897 265.305 350.551C265.764 350.752 266.552 351.095 267.059 351.095C267.758 351.095 267.721 352.385 267.721 351.095" stroke="#00ADB5" stroke-opacity="0.5" stroke-linecap="round" stroke-linejoin="round"/>
<path d="M267.606 351.902C266.752 353.047 266.143 353.483 264.931 354.151C263.979 354.676 262.925 355.048 261.859 355.243C260.863 355.425 259.776 355.568 258.767 355.649C257.928 355.716 257.071 355.619 256.214 355.716C254.274 355.937 252.318 356.437 250.447 356.984C247.777 357.764 245.198 357.845 242.44 357.995C239.43 358.158 236.411 357.928 233.461 357.316C232.466 357.11 231.414 357.295 230.402 357.256C229.286 357.212 228.193 356.905 227.144 356.542C226.702 356.389 226.295 356.155 225.832 356.049C225.29 355.926 224.738 355.974 224.2 355.844C223.45 355.663 222.574 355.336 221.941 354.897C221.665 354.706 221.251 354.549 221.035 354.26C220.972 354.176 220.891 353.989 220.891 353.889C220.891 353.651 220.696 353.711 221.006 353.918" stroke="#00ADB5" stroke-opacity="0.5" stroke-linecap="round" stroke-linejoin="round"/>
<path d="M242.838 363.595C243.539 363.517 244.465 363.53 244.175 362.629C244.082 362.339 243.848 362.308 243.599 362.225C242.858 361.978 241.532 362.457 241.253 363.23C240.754 364.618 241.7 366.118 243.186 365.637C243.591 365.506 244.308 365.22 244.566 364.853C244.874 364.412 244.411 364.542 244.105 364.113" stroke="#00ADB5" stroke-opacity="0.5" stroke-linecap="round" stroke-linejoin="round"/>
<path d="M240.706 362.097C241.824 361.649 242.395 361.464 243.526 361.464C243.981 361.464 244.209 361.432 244.61 361.694C245.274 362.128 245.502 362.952 245.433 363.678C245.374 364.291 245.172 365.131 244.956 365.713C244.796 366.146 244.399 366.221 243.993 366.302C243.622 366.376 242.813 366.169 242.521 366.331C242.211 366.503 241.263 366.561 241.023 366.241C240.803 365.947 240.566 365.821 240.405 365.464C240.252 365.123 240.183 364.798 240.06 364.459C239.891 363.994 239.587 362.723 240.217 362.443C240.586 362.279 240.744 362.181 241.167 362.181C241.287 362.181 241.39 362.27 241.513 362.27C241.69 362.27 241.171 362.155 240.994 362.155" stroke="#00ADB5" stroke-opacity="0.5" stroke-linecap="round" stroke-linejoin="round"/>
<path d="M242.722 357.489C243.535 356.439 244.276 355.355 245.116 354.334C245.567 353.785 246.127 353.313 246.614 352.788C248.006 351.285 249.424 349.639 250.486 347.882C251.531 346.152 252.958 344.267 254.508 342.967C255.327 342.28 256.059 341.522 256.771 340.73C257.462 339.962 257.78 338.889 258.435 338.077C258.942 337.449 262.26 333.174 262.838 335.773C263.065 336.795 262.069 337.509 261.443 338.135C260.733 338.845 260.019 339.747 259.414 340.554C258.831 341.332 258.121 342.016 257.555 342.801C256.784 343.868 255.381 344.632 254.819 345.841C254.355 346.838 253.585 347.64 253.007 348.564C252.207 349.845 251.269 350.915 250.326 352.087C249.578 353.016 248.407 353.78 247.878 354.839C247.435 355.724 246.651 356.097 245.935 356.67C245.624 356.919 245.245 357.058 244.969 357.403C244.877 357.518 244.712 357.65 244.626 357.521C244.577 357.448 244.39 357.613 244.425 357.694C244.548 357.981 244.249 357.005 244.22 356.913" stroke="#00ADB5" stroke-opacity="0.5" stroke-linecap="round" stroke-linejoin="round"/>
<path d="M242.261 357.777C242.482 357.889 243.874 358.946 243.874 358.094C243.874 357.836 244.206 357.406 244.322 357.144C244.411 356.945 243.615 357.135 243.497 357.288C243.342 357.486 243.042 357.648 243.529 357.662C243.903 357.673 244.195 357.512 244.479 357.291C244.561 357.227 245.66 357.401 244.681 357.374C244.16 357.359 243.654 357.374 243.154 357.374C242.722 357.374 243.598 357.259 243.724 357.259C243.825 357.259 242.994 357.753 242.85 357.592C242.815 357.552 242.755 357.444 242.895 357.374" stroke="#00ADB5" stroke-opacity="0.5" stroke-linecap="round" stroke-linejoin="round"/>
<path d="M223.944 353.515C224.009 353.549 226.067 354.627 226.075 354.494C226.085 354.333 225.97 354.192 226.05 354.033C226.398 353.336 226.849 353.671 227.448 353.94C227.916 354.151 227.206 351.82 228.616 352.804C229.345 353.313 229.539 353.232 229.419 352.379C229.329 351.733 229.552 351.731 230.107 351.799C230.485 351.846 230.756 351.928 230.971 351.569C231.233 351.133 231.528 350.885 232.063 351.073C232.506 351.229 232.9 351.668 233.205 351.108C233.339 350.862 233.226 350.125 233.65 350.267C233.916 350.355 234.266 350.702 234.568 350.593C234.798 350.51 234.974 349.799 235.234 349.911C235.505 350.029 235.781 350.543 236.124 350.42C236.289 350.361 236.595 349.821 236.271 349.886" stroke="#00ADB5" stroke-opacity="0.5" stroke-linecap="round" stroke-linejoin="round"/>
<path d="M232.066 352.478C232.78 353.059 235.454 356.162 236.239 353.844C236.38 353.429 236.402 352.607 236.796 353.287C237.12 353.848 237.609 354.237 238.14 353.707C238.492 353.355 238.648 352.758 239.151 352.574C239.613 352.405 239.951 353.273 240.335 352.766C240.645 352.357 240.495 351.654 240.041 351.409C239.892 351.328 239.85 351.606 239.785 351.671" stroke="#00ADB5" stroke-opacity="0.5" stroke-linecap="round" stroke-linejoin="round"/>
<path d="M238.229 348.907C239.342 348.715 240.743 348.326 241.589 349.323C241.982 349.784 241.944 350.374 241.685 350.897C241.496 351.279 240.987 351.47 240.661 351.095C240.395 350.788 240.945 350.281 241.141 350.094C241.816 349.451 242.815 350.48 243.026 351.179C243.203 351.762 241.608 353.114 241.801 352.535" stroke="#00ADB5" stroke-opacity="0.5" stroke-linecap="round" stroke-linejoin="round"/>
<path d="M256.95 350.865C257.28 350.751 259.406 350.067 258.998 351.198C258.789 351.778 257.987 352.089 257.462 352.279C257.213 352.369 256.571 352.354 256.988 351.991C257.349 351.678 257.858 351.53 258.332 351.569C260.181 351.719 257.596 353.843 257.065 354.136C256.034 354.704 254.631 355.303 253.551 354.609" stroke="#00ADB5" stroke-opacity="0.5" stroke-linecap="round" stroke-linejoin="round"/>
<path d="M245.602 347.466C246.041 348.18 246.568 348.896 246.943 349.646C247.072 349.904 246.514 349.243 246.383 348.987C246.348 348.919 246.108 348.162 246.085 348.167C245.805 348.23 245.739 349.514 245.663 349.751C245.304 350.873 244.417 350.443 243.548 350.359C242.495 350.258 242.024 351.296 241.442 351.959C240.976 352.49 240.793 352.653 241.109 353.284C241.365 353.795 241.471 354.291 241.109 354.753C240.827 355.114 240.474 355.342 240.133 355.64C239.821 355.912 240.269 355.867 240.21 355.704C240.05 355.256 239.064 355.349 238.741 355.371C237.542 355.45 236.321 355.149 235.144 355.224C234.519 355.263 233.93 355.612 233.311 355.704C232.681 355.797 233.513 356.343 233.749 356.5C234.155 356.771 232.955 355.925 232.514 355.716C231.774 355.366 231.092 355.096 230.709 354.321C230.325 353.545 229.988 353.016 229.339 352.446C229.116 352.249 229.089 351.951 229.198 351.684C229.451 351.067 230.012 350.565 230.568 350.231" stroke="#00ADB5" stroke-opacity="0.5" stroke-linecap="round" stroke-linejoin="round"/>
<path d="M245.487 349.771C244.043 348.763 242.852 348.329 241.154 348.1C240.557 348.02 239.921 347.607 239.532 347.15C239.186 346.744 239.382 346.852 238.975 347.402C238.419 348.155 238.006 347.48 237.295 347.678C236.206 347.981 235.271 348.994 234.165 349.182C233.862 349.233 233.935 348.727 233.557 348.945C232.92 349.312 232.433 349.66 231.688 349.777C231.238 349.848 230.384 350.144 230.453 350.692" stroke="#00ADB5" stroke-opacity="0.5" stroke-linecap="round" stroke-linejoin="round"/>
<path d="M255.279 349.771C256.673 349.905 258.084 349.888 259.472 350.036C259.96 350.088 260.21 350.286 260.553 350.606C260.863 350.894 261.347 351.574 261.792 351.611C262.433 351.664 262.764 351.398 263.363 351.211C263.723 351.098 264.873 351.211 264.496 351.211" stroke="#00ADB5" stroke-opacity="0.5" stroke-linecap="round" stroke-linejoin="round"/>
<path d="M254.243 351.326C252.745 352.313 251.945 353.81 250.342 354.708C250.024 354.886 249.053 355.231 249.126 355.816C249.179 356.239 252.424 354.914 252.918 354.667" stroke="#00ADB5" stroke-opacity="0.5" stroke-linecap="round" stroke-linejoin="round"/>
<path d="M259.83 352.708C260.644 353.314 261.347 354.181 262.365 353.873C262.64 353.79 263.216 353.757 263.401 353.572" stroke="#00ADB5" stroke-opacity="0.5" stroke-linecap="round" stroke-linejoin="round"/>
<path d="M461.132 327.597C456.925 328.404 453.867 329.619 451.201 333.047C449.511 335.219 449.882 338.638 450.989 340.941C452.813 344.736 457.298 346.879 461.344 347.065C466.057 347.281 472.609 345.896 473.575 340.275C474.093 337.262 471.214 334.413 469.866 331.942C468.77 329.931 467.118 327.221 464.81 326.371C463.868 326.024 461.681 326.144 460.995 327.082C460.689 327.501 460.295 327.944 460.072 328.414C459.891 328.796 460.085 327.444 460.042 327.052" stroke="#00ADB5" stroke-opacity="0.5" stroke-linecap="round" stroke-linejoin="round"/>
<path d="M462.903 337.951C461.768 338.535 459.926 338.921 460.92 340.199C461.146 340.491 461.469 340.475 461.745 340.199C461.98 339.964 463.167 338.728 462.29 338.436C460.502 337.84 461.156 341.407 462.433 339.829C463.12 338.981 462.159 338.146 461.298 338.663C460.272 339.278 461.084 340.353 461.889 339.42C462.495 338.716 462.011 338.177 461.351 338.837C460.76 339.428 461.36 340.37 461.941 339.571C462.537 338.752 461.858 338.058 461.139 338.776C460.307 339.608 461.208 339.521 461.798 338.973C462.392 338.421 461.338 338.502 460.995 338.935C460.2 339.941 461.446 339.798 461.646 338.935C461.941 337.668 460.634 340.58 461.268 338.36" stroke="#00ADB5" stroke-opacity="0.5" stroke-linecap="round" stroke-linejoin="round"/>
<path d="M458.271 333.728C459.481 335.325 460.721 336.839 461.737 338.436C462.019 338.878 461.794 339.322 461.949 339.314C462.522 339.282 463.11 339.178 463.72 339.178C465.118 339.178 466.218 338.496 467.565 338.496C469.196 338.496 471.593 338.073 468.897 336.725" stroke="#00ADB5" stroke-opacity="0.5" stroke-linecap="round" stroke-linejoin="round"/>
<path d="M456.908 327.461C456.653 326.173 455.41 323.05 457.725 323.381C458.556 323.5 459.114 324.359 459.603 324.902C460.874 326.315 460.738 328.021 458.679 328.142C458.14 328.174 457.38 329.243 456.772 328.483C456.083 327.621 456.786 327.679 456.908 326.643C456.988 325.966 456.545 326.022 456.355 325.356C456.21 324.846 456.512 324.287 456.635 323.918" stroke="#00ADB5" stroke-opacity="0.5" stroke-linecap="round" stroke-linejoin="round"/>
<path d="M457.726 325.962C457.713 326.287 457.212 329.22 458.278 328.74C458.635 328.579 458.944 328.346 459.088 327.975C459.228 327.617 459.079 327.402 458.921 327.052C458.515 326.149 457.336 324.745 457.695 326.779C457.922 328.063 459.355 327.763 459.466 326.537C459.552 325.601 458.371 324.347 457.62 325.417C457.088 326.174 458.035 327.842 458.588 326.673C458.87 326.08 458.197 324.571 457.483 325.311C456.751 326.069 457.851 327.669 458.573 327.022C459.287 326.382 458.802 324.43 458.028 325.175C457.321 325.856 458.382 327.212 458.921 326.174C459.523 325.016 458.198 324.143 457.786 325.356C457.418 326.44 458.565 327.604 458.831 326.128C459.033 325.005 456.969 324.408 456.969 325.75C456.969 326.987 458.074 326.86 458.074 325.735C458.074 324.562 456.893 324.826 457.385 325.811C457.877 326.795 458.537 325.048 457.983 324.494C457.336 323.847 456.479 324.847 457.241 325.47C457.76 325.895 458.47 324.132 457.597 323.805C456.843 323.522 457.26 325.062 457.521 324.713C457.926 324.173 457.305 323.811 457.733 323.918C458.11 324.013 459.026 324.214 459.285 324.547C459.488 324.808 460.314 326.265 460.314 326.643C460.314 327.8 458.544 328.424 457.529 328.134C456.8 327.926 456.584 328.441 456.84 328.271C457.46 327.857 457.589 326.779 457.589 327.188" stroke="#00ADB5" stroke-opacity="0.5" stroke-linecap="round" stroke-linejoin="round"/>
<path d="M457.589 346.943C456.888 348.432 456.265 349.927 455.44 351.334C455.254 351.65 454.905 352.297 454.864 352.666C454.754 353.66 455.752 350.295 455.954 349.805" stroke="#00ADB5" stroke-opacity="0.5" stroke-linecap="round" stroke-linejoin="round"/>
<path d="M471.35 344.082C473.075 346.261 474.978 347.815 476.323 350.206C476.455 350.441 476.685 350.628 476.868 350.811C477.48 351.423 475.732 349.505 475.165 348.851" stroke="#00ADB5" stroke-opacity="0.5" stroke-linecap="round" stroke-linejoin="round"/>
<path d="M357.065 217.051C358.144 221.123 362.31 236.26 363.307 241.791C366.051 257.019 361.745 236.24 361.735 242.966" stroke="#00ADB5" stroke-opacity="0.5" stroke-width="2" stroke-linecap="round" stroke-linejoin="round"/>
<path d="M349.754 223.634C349.386 217.438 347.996 208.838 356.684 209.723C360.772 210.14 365.274 212.566 367.822 215.812C371.76 220.828 369.683 228.604 365.428 232.596C363.163 234.72 360.966 235.785 358.003 236.588C352.982 237.949 356.944 230.976 357.753 229.064" stroke="#00ADB5" stroke-opacity="0.5" stroke-width="2" stroke-linecap="round" stroke-linejoin="round"/>
<path d="M372.352 231.207C380.985 230.745 388.931 229.046 392.02 238.408C393.814 243.849 396 250.46 394.504 256.194C393.152 261.375 390.24 264.614 384.916 262.407C377.308 259.253 377.318 253.315 381.459 247.393C382.984 245.213 388.823 240.847 388.827 238.298" stroke="#00ADB5" stroke-opacity="0.5" stroke-width="2" stroke-linecap="round" stroke-linejoin="round"/>
<path d="M387.912 221.104C387.618 223.375 387.613 239.444 383.264 239.598C382.448 239.627 381.764 240.051 381.051 240.406C378.313 241.769 379.979 240.542 381.001 239.123C383.316 235.909 388.006 237.097 390.353 232.831C392.903 228.199 394.077 225.921 390.422 222.338C387.861 219.826 388.986 215.555 386.969 221.573" stroke="#00ADB5" stroke-opacity="0.5" stroke-width="2" stroke-linecap="round" stroke-linejoin="round"/>
<path d="M400.653 206.522C403.99 214.033 407.039 223.815 412.392 230.354C413.806 232.082 414.6 230.578 414.578 229.232C414.551 227.532 414.072 225.816 413.579 224.206" stroke="#00ADB5" stroke-opacity="0.5" stroke-width="2" stroke-linecap="round" stroke-linejoin="round"/>
<path d="M390.966 226.055C396.26 223.972 409.258 221.864 411.473 215.253" stroke="#00ADB5" stroke-opacity="0.5" stroke-width="2" stroke-linecap="round" stroke-linejoin="round"/>
<path d="M407.247 206.768C430.192 246.902 407.838 218.694 419.5 211.353C426.58 206.898 427.17 227.897 429.132 218.814" stroke="#00ADB5" stroke-opacity="0.5" stroke-width="2" stroke-linecap="round" stroke-linejoin="round"/>
<path d="M427.74 205.387C428.572 207.876 431.368 224.307 437.189 220.554C439.792 218.875 442.824 215.675 443.325 212.529C443.864 209.154 441.755 200.579 436.984 201.502C434.806 201.924 431.164 202.025 429.744 204.095C428.371 206.095 427.504 210.779 429.152 205.86" stroke="#00ADB5" stroke-opacity="0.5" stroke-width="2" stroke-linecap="round" stroke-linejoin="round"/>
<path d="M443.997 201.409C450.504 197.231 458.152 195.86 459.142 205.698C459.266 206.933 459.289 208.488 459.856 209.625C460.512 210.943 459.163 206.403 457.886 205.67" stroke="#00ADB5" stroke-opacity="0.5" stroke-width="2" stroke-linecap="round" stroke-linejoin="round"/>
<path d="M443.52 205.176C443.814 210.319 443.079 217.286 445.482 222.111C445.564 222.275 446.135 223.534 445.847 222.844C445.278 221.479 445.042 220.553 443.969 219.073" stroke="#00ADB5" stroke-opacity="0.5" stroke-width="2" stroke-linecap="round" stroke-linejoin="round"/>
<path d="M278.833 251.734C277.932 260.093 279.503 285.829 265.305 284.227C262.345 283.894 259.657 283.399 258.251 280.61C256.778 277.69 255.56 275.149 255.414 271.832C255.234 267.758 256.856 265.835 260.15 263.996C261.305 263.352 258.823 265.962 258.603 266.215C257.155 267.878 262.067 265.851 263.945 265.435" stroke="#00ADB5" stroke-opacity="0.5" stroke-width="2" stroke-linecap="round" stroke-linejoin="round"/>
<path d="M297.06 255.75C289.879 256.422 279.743 257.783 278.584 266.767C277.956 271.64 285.201 272.232 288.345 273.892C293.748 276.743 297.848 286.043 291.787 290.136C287.573 292.982 284.385 291.469 280.286 291.753C276.121 292.042 279.021 290.507 281.49 290.086" stroke="#00ADB5" stroke-opacity="0.5" stroke-width="2" stroke-linecap="round" stroke-linejoin="round"/>
<path d="M335.973 34.5733C335.397 40.3405 335.047 46.1668 334.336 51.9203C334.267 52.4739 333.722 54.6592 334.367 52.8924C334.838 51.6006 334.686 50.2544 335.442 49.0294C336.485 47.3421 341.194 40.9151 343.406 41.5652C347.839 42.8682 343.365 51.0911 342.096 53.4474C341.658 54.26 340.465 56.0228 341.083 56.9341C341.906 58.149 343.429 53.6592 343.494 53.5218" stroke="#00ADB5" stroke-opacity="0.5" stroke-width="2" stroke-linecap="round" stroke-linejoin="round"/>
<path d="M353.482 38.3603C352.956 40.9369 348.543 53.655 352.795 55.7616C353.995 56.3561 356.65 55.2339 357.475 54.2665C358.334 53.2591 357.885 51.7166 357.792 50.5474" stroke="#00ADB5" stroke-opacity="0.5" stroke-width="2" stroke-linecap="round" stroke-linejoin="round"/>
<path d="M344.733 38.6382C349.398 40.0256 354.196 40.9493 358.832 42.3807C359.926 42.7186 360.336 42.8716 360.925 43.8477C361.841 45.366 359.407 43.9791 358.987 43.5192" stroke="#00ADB5" stroke-opacity="0.5" stroke-width="2" stroke-linecap="round" stroke-linejoin="round"/>
<path d="M365.831 47.6529C364.76 50.8857 363.754 54.1591 362.531 57.3404C362.289 57.9729 362.252 58.2042 362.121 57.7211C361.995 57.2557 361.872 56.9815 362.079 56.49C363.177 53.878 365.74 50.1241 368.158 48.6652C370.768 47.0897 369.344 52.3816 368.993 53.4529C368.599 54.656 367.538 57.9535 368.745 54.7627C369.462 52.8638 371.11 48.1445 373.888 48.8314C375.57 49.2474 375.182 51.5219 374.885 52.7246C374.336 54.9425 373.791 57.1455 373.241 59.3708C372.437 62.6225 372.871 60.8665 373.459 58.4903" stroke="#00ADB5" stroke-opacity="0.5" stroke-width="2" stroke-linecap="round" stroke-linejoin="round"/>
<path d="M386.569 40.5746C384.893 46.6026 382.837 52.6134 381.393 58.7041C381.224 59.4184 380.854 62.0633 381.992 62.3784C383.072 62.6777 387.341 60.1129 386.298 59.2237" stroke="#00ADB5" stroke-opacity="0.5" stroke-width="2" stroke-linecap="round" stroke-linejoin="round"/>
<path d="M96.4273 286.46C92.464 293.989 88.5135 301.525 84.5395 309.048C83.4068 311.193 81.1712 317.753 80.8944 315.344C80.5191 312.077 82.5151 307.504 83.3621 304.443C84.5574 300.122 86.9913 291.491 93.0562 291.522C97.6342 291.547 102.781 298.26 103.491 302.449C103.992 305.406 105.45 302.066 107.428 301.174" stroke="#00ADB5" stroke-opacity="0.5" stroke-width="2" stroke-linecap="round" stroke-linejoin="round"/>
<path d="M108.712 310.581C111.376 316.775 115.302 327.246 123.386 321.485C127.101 318.838 125.255 314.308 121.588 312.869C112.601 309.343 101.276 319.189 99.0347 327.282C96.7938 335.374 105.64 337.855 111.725 338.654C115.092 339.096 114.337 336.218 117.234 335.216" stroke="#00ADB5" stroke-opacity="0.5" stroke-width="2" stroke-linecap="round" stroke-linejoin="round"/>
<path d="M131.095 331.997C124.113 329.082 114.864 326.483 110.93 335.405C109.033 339.705 117.52 340.21 120.038 340.091C124.846 339.865 135.552 328.735 131.945 331.922C128.779 334.719 125.576 338.02 124.274 342.15C123.434 344.818 124.399 350.711 127.492 346.641" stroke="#00ADB5" stroke-opacity="0.5" stroke-width="2" stroke-linecap="round" stroke-linejoin="round"/>
<path d="M158.244 337.579C148.111 338.551 136.102 339.06 132.507 350.445C130.74 356.041 134.886 359.933 139.882 361.575C143.373 362.723 146.932 360.231 149.05 357.703" stroke="#00ADB5" stroke-opacity="0.5" stroke-width="2" stroke-linecap="round" stroke-linejoin="round"/>
<path d="M167.448 339.123C166.892 339.799 141.931 367.004 153.829 367.214C157.124 367.273 160.505 365.356 162.773 363.201" stroke="#00ADB5" stroke-opacity="0.5" stroke-width="2" stroke-linecap="round" stroke-linejoin="round"/>
<path d="M146.305 344.073C151.098 347.378 155.823 350.878 161.08 353.432C162.445 354.096 164.72 354.412 165.66 355.788C166.188 356.561 165.358 354.725 165.266 354.458" stroke="#00ADB5" stroke-opacity="0.5" stroke-width="2" stroke-linecap="round" stroke-linejoin="round"/>
<path d="M92.8483 126.255C96.8701 133.133 109.642 153.199 104.457 147.15C101.143 143.283 98.6254 138.151 96.524 133.576C94.3189 128.776 92.2483 120.211 100.651 120.645C107.864 121.019 110.743 128.384 112.012 134.421C112.571 137.084 112.714 139.153 113.909 141.575C115.13 144.052 115.198 134.509 115.662 132.033" stroke="#00ADB5" stroke-opacity="0.5" stroke-width="2" stroke-linecap="round" stroke-linejoin="round"/>
<path d="M118.833 112.267C119.057 113.307 122.533 137.092 127.579 132.518C129.704 130.592 130.171 125.844 130.444 123.243C131.296 115.114 127.862 114.11 122.155 112.39C119.433 111.569 118.875 111.606 118.127 114.409C116.592 120.164 119.012 118.547 122.113 115.347" stroke="#00ADB5" stroke-opacity="0.5" stroke-width="2" stroke-linecap="round" stroke-linejoin="round"/>
<path d="M140.773 105.557C137.97 110.282 134.395 115.84 136.367 121.627C137.185 124.028 139.088 123.393 140.421 122.042C142.524 119.909 143.621 116.404 143.504 113.475C143.28 107.861 139.763 103.057 136.072 99.0676C135.561 98.5145 130.9 94.6725 131.813 97.9712C133.452 103.896 138.015 109.595 141.194 114.745C146.434 123.232 148.041 119.936 150.395 111.969" stroke="#00ADB5" stroke-opacity="0.5" stroke-width="2" stroke-linecap="round" stroke-linejoin="round"/>
<path d="M150.893 107.026C152.633 108.649 166.363 118.456 166.789 109.757C166.827 108.968 165.821 108.721 165.49 108.049C164.635 106.316 163.219 105.173 162.449 104.264" stroke="#00ADB5" stroke-opacity="0.5" stroke-width="2" stroke-linecap="round" stroke-linejoin="round"/>
<path d="M152.038 112.921C146.602 105.782 139.008 98.3595 146.792 91.302C150.072 88.3282 156.878 90.6797 156.7 95.6483C156.617 97.9624 156.129 103.685 152.805 104.289C151.048 104.608 150.238 103.458 151.863 101.85" stroke="#00ADB5" stroke-opacity="0.5" stroke-width="2" stroke-linecap="round" stroke-linejoin="round"/>
<path d="M164.448 83.3129C167.963 85.5493 193.008 100.35 179.89 106.819C177.845 107.828 176.046 105.478 174.959 103.966C172.509 100.558 179.647 95.7227 179.944 92.1126" stroke="#00ADB5" stroke-opacity="0.5" stroke-width="2" stroke-linecap="round" stroke-linejoin="round"/>
<path d="M185.005 71.4142C182.959 73.0849 171.225 83.4619 180.452 85.4683C185.549 86.5765 190.366 81.4977 194.24 78.9626C200.48 74.8787 201.798 82.7372 200.083 87.1727C199.033 89.8891 190.266 98.7785 192.665 91.7115" stroke="#00ADB5" stroke-opacity="0.5" stroke-width="2" stroke-linecap="round" stroke-linejoin="round"/>
<path d="M254.261 457.65C246.455 461.578 236.226 468.742 244.665 478.247C248.713 482.807 256.186 480.939 261.517 480.412C263.015 480.264 267.148 481.705 266.023 480.705C263.589 478.542 261.838 478.681 261.108 475.029" stroke="#00ADB5" stroke-opacity="0.5" stroke-width="2" stroke-linecap="round" stroke-linejoin="round"/>
<path d="M277.434 455.016C277.434 460.771 277.38 464.891 283.285 467.129C285.835 468.096 287.436 468.983 288.113 471.84C288.878 475.069 286.625 479.747 283.958 481.553C280.661 483.786 276.52 484.565 272.811 483.045C269.634 481.743 273.146 480.204 274.8 478.715" stroke="#00ADB5" stroke-opacity="0.5" stroke-width="2" stroke-linecap="round" stroke-linejoin="round"/>
<path d="M303.239 448.697C302.203 452.71 297.534 463.443 301.688 467.597C303.365 469.274 306.612 468.343 308.68 468.826C310.738 469.307 312.503 470.882 313.771 472.513C315.779 475.094 313.868 479.006 311.548 480.822C307.948 483.639 302.806 482.402 298.616 482.402C296.328 482.402 297.891 482.24 299.025 480.822" stroke="#00ADB5" stroke-opacity="0.5" stroke-width="2" stroke-linecap="round" stroke-linejoin="round"/>
<path d="M294.16 398.752C298.217 397.204 305.742 394.74 309.666 391.964C313.809 389.034 309.472 388.192 307.267 388.892C303.533 390.079 301.277 393.99 300.011 397.436C296.679 406.507 307.279 416.761 316.191 415.722C324.426 414.761 325.575 410.729 326.811 404.545" stroke="#00ADB5" stroke-opacity="0.5" stroke-width="2" stroke-linecap="round" stroke-linejoin="round"/>
<path d="M332.078 394.012C331.155 395.515 322.39 413.561 319.965 405.072" stroke="#00ADB5" stroke-opacity="0.5" stroke-width="2" stroke-linecap="round" stroke-linejoin="round"/>
<path d="M315.752 394.539C319.45 399.482 328.384 417.156 337.344 416.658C338.644 416.586 336.92 411.583 336.818 410.865" stroke="#00ADB5" stroke-opacity="0.5" stroke-width="2" stroke-linecap="round" stroke-linejoin="round"/>
<path d="M339.977 394.539C342.02 406.506 346.112 442.674 343.781 430.76C342.579 424.617 331.603 391.374 341.265 392.754C345.455 393.353 356.151 399.466 353.348 405.072C351.772 408.224 342.005 409.324 346.297 407.178" stroke="#00ADB5" stroke-opacity="0.5" stroke-width="2" stroke-linecap="round" stroke-linejoin="round"/>
<path d="M359.99 402.965C361.291 409.736 362.543 416.502 363.676 423.299C363.87 424.463 363.61 423.504 363.267 422.861C361.113 418.821 358.163 411.623 358.264 407.091C358.359 402.797 364.266 399.869 367.363 402.965" stroke="#00ADB5" stroke-opacity="0.5" stroke-width="2" stroke-linecap="round" stroke-linejoin="round"/>
<path d="M376.843 410.865C376.706 415.821 380.301 433.172 388.838 428.127C390.061 427.404 393.079 425.638 393.168 424.031C393.216 423.174 391.657 422.978 391.062 422.978C389.497 422.978 389.106 421.037 388.429 419.818" stroke="#00ADB5" stroke-opacity="0.5" stroke-width="2" stroke-linecap="round" stroke-linejoin="round"/>
<path d="M374.209 412.445C378.822 407.673 384.01 401.099 388.107 409.607C389.306 412.098 388.888 415.099 387.902 417.594C386.308 421.625 380.601 423.215 382.109 417.185" stroke="#00ADB5" stroke-opacity="0.5" stroke-width="2" stroke-linecap="round" stroke-linejoin="round"/>
<path d="M402.648 402.965C406.257 408.733 420.855 424.281 411.279 431.375C408.215 433.644 406.215 433.634 402.765 433.51C397.894 433.336 400.468 432.102 402.121 428.244" stroke="#00ADB5" stroke-opacity="0.5" stroke-width="2" stroke-linecap="round" stroke-linejoin="round"/>
<path d="M424.766 400.859C423.676 402.178 409.594 415.792 418.154 417.243C421.309 417.778 424.209 415.867 427.107 417.799C432.336 421.285 431.097 426.01 426.288 428.975C423.884 430.458 421.202 431.235 418.681 432.457C417.256 433.148 418.774 431.147 418.973 430.351" stroke="#00ADB5" stroke-opacity="0.5" stroke-width="2" stroke-linecap="round" stroke-linejoin="round"/>
<path d="M412.654 395.066C411.431 395.964 398.264 403.271 400.132 407.705C402.487 413.299 403.266 406.413 403.701 404.019" stroke="#00ADB5" stroke-opacity="0.5" stroke-width="2" stroke-linecap="round" stroke-linejoin="round"/>
<path d="M88.9711 222.793C91.3166 217.263 90.3559 212.444 90.3559 206.712C90.3559 205.597 90.1536 202.201 91.3254 201.593C93.1732 200.634 94.9001 199.994 97.0803 199.994C98.5298 199.994 99.9861 200.036 101.435 199.994C102.884 199.953 104.288 199.363 105.72 199.188C108.386 198.861 111.159 199.316 113.791 199.316C115.881 199.316 118.043 199.587 120.054 199.587C120.411 199.587 121.866 199.757 122.1 199.964C122.818 200.597 122.612 201.612 123.178 202.166" stroke="#00ADB5" stroke-opacity="0.5" stroke-linecap="round" stroke-linejoin="round"/>
<path d="M123.04 202.656C123.131 204.288 123.165 206.578 123.837 208.173C124.272 209.206 123.925 210.582 124.013 211.683C124.182 213.795 123.867 215.855 123.867 217.905C123.867 220.654 124.005 223.369 124.005 226.104C124.005 228.451 121.712 228.058 119.898 227.728C118.331 227.443 116.228 228.015 114.595 228.035C111.445 228.074 108.28 228.311 105.124 228.311C102.489 228.311 100.532 227.545 98.1051 226.625C96.8092 226.133 96.0259 226.242 94.6339 226.242C93.3155 226.242 92.2314 226.036 90.9098 226.449C90.1366 226.69 88.7519 226.482 88.3121 225.69C87.7848 224.741 88.8332 224.329 88.8332 223.552C88.8332 222.9 88.7512 221.034 88.9711 222.794" stroke="#00ADB5" stroke-opacity="0.5" stroke-linecap="round" stroke-linejoin="round"/>
<path d="M104.695 206.242C104.695 206.242 105.247 206.518 105.799 207.07C106.35 207.483 107.512 207.277 108.488 207.277C109.002 207.277 109.545 206.876 110.005 206.671C110.939 206.256 110.382 207.037 110.159 207.483C109.911 207.978 110.194 208.898 110.641 209.208C111.38 209.719 112.111 209.278 112.833 208.916C113.133 208.766 113.051 208.697 113.143 208.901C113.269 209.178 113.247 209.58 113.247 209.882C113.247 210.569 113.202 211.712 112.833 212.311C112.348 213.099 111.858 213.609 111.078 214.188C110.308 214.761 109.29 215.759 108.266 215.759C106.265 215.759 104.141 215.323 103.14 213.376C102.715 212.551 101.937 211.875 101.937 210.932C101.937 210.144 101.676 209.201 101.937 208.449C102.252 207.537 103.04 206.671 102.764 206.671C102.905 206.711 104.143 205.966 104.695 206.242Z" stroke="#00ADB5" stroke-opacity="0.5" stroke-linecap="round" stroke-linejoin="round"/>
<path d="M106.971 205.759C107.747 205.472 109.519 204.87 109.936 203.932C110.259 203.206 109.193 203.07 108.626 203.07C107.938 203.07 107.123 204.02 106.94 204.621C106.839 204.956 106.742 205.298 106.642 205.637C106.593 205.8 106.658 205.918 106.691 206.07C106.717 206.185 107.769 205.632 107.73 205.474" stroke="#00ADB5" stroke-opacity="0.5" stroke-linecap="round" stroke-linejoin="round"/>
<path d="M120.908 221.273L90.3696 221.944C87.1392 222.015 84.5574 224.654 84.5574 227.885C84.5574 231.167 87.218 233.828 90.5002 233.828H121.04C124.353 233.828 127.04 231.142 127.04 227.828V227.272C127.04 223.906 124.272 221.199 120.908 221.273Z" stroke="#00ADB5" stroke-opacity="0.5"/>
<path d="M97.0588 221.777C97.5169 222.487 97.9124 223.34 98.438 223.997C98.7024 224.327 98.66 224.26 99.1725 224.07C100.028 223.753 100.997 223.981 101.89 223.981C102.674 223.981 103.585 223.571 104.347 223.777C105.229 224.014 106.269 223.561 107.138 223.54C108.184 223.515 109.182 223.613 110.222 223.613C110.85 223.613 111.461 223.246 112.042 223.246C112.379 223.246 113.34 223.513 113.364 222.895C113.376 222.594 113.511 222.302 113.511 221.997C113.511 221.586 113.265 221.764 112.85 221.557" stroke="#00ADB5" stroke-opacity="0.5" stroke-linecap="round" stroke-linejoin="round"/>
<path d="M246.48 71.0062C247.046 70.2862 248.131 68.9538 246.611 68.7182C246.267 68.6649 245.945 68.4628 245.608 68.6158C244.568 69.0869 243.602 70.1242 243.602 71.3575C243.602 73.3274 245.763 73.7539 247.332 73.7284C249.98 73.6854 250.786 71.1056 251.721 69.0158C252.666 66.9049 253.715 64.8281 254.695 62.7323C255.804 60.3608 257.623 58.4717 258.774 56.1219C259.267 55.1143 259.911 54.227 260.547 53.307C261.532 51.8799 262.235 50.4402 262.94 48.8578C263.518 47.5596 264.159 46.3741 264.867 45.1453C265.154 44.6484 265.046 43.8871 265.594 44.4184C266.01 44.8217 266.672 45.0867 267.231 45.1892C269.678 45.6373 271.929 46.1116 274.449 45.9112C276.998 45.7085 279.545 45.3434 282.054 44.8574C282.907 44.6922 282.543 44.8911 282.141 45.4087C281.459 46.2866 280.876 47.217 280.223 48.1065C279.371 49.2666 279.071 50.6636 278.566 51.9898C278.012 53.4477 277.352 54.8402 276.822 56.3219C275.799 59.1856 274.306 61.7972 272.458 64.2007C271.387 65.5936 270.065 68.0264 268.06 67.9279C264.957 67.7755 267.052 61.6678 268.534 60.4735C269.332 59.8306 270.205 60.5228 270.302 61.3858C270.436 62.5717 270.029 64.1967 268.878 64.7764C267.664 65.388 266.733 65.3146 267.667 63.7373C268.233 62.7829 268.569 63.8332 268.801 63.3665" stroke="#00ADB5" stroke-opacity="0.5" stroke-width="2" stroke-linecap="round" stroke-linejoin="round"/>
<path d="M480.308 283.769C480.874 283.048 481.959 281.716 480.439 281.481C480.095 281.427 479.773 281.225 479.436 281.378C478.396 281.849 477.431 282.887 477.431 284.12C477.431 286.09 479.591 286.516 481.16 286.491C483.808 286.448 484.614 283.868 485.549 281.778C486.494 279.667 487.543 277.59 488.523 275.495C489.632 273.123 491.451 271.234 492.602 268.884C493.095 267.877 493.74 266.989 494.375 266.069C495.36 264.642 496.063 263.202 496.768 261.62C497.346 260.322 497.987 259.136 498.696 257.908C498.982 257.411 498.874 256.649 499.422 257.181C499.838 257.584 500.5 257.849 501.059 257.951C503.507 258.4 505.757 258.874 508.277 258.673C510.826 258.471 513.373 258.106 515.882 257.62C516.735 257.455 516.371 257.653 515.969 258.171C515.287 259.049 514.705 259.979 514.051 260.869C513.199 262.029 512.899 263.426 512.394 264.752C511.84 266.21 511.18 267.602 510.651 269.084C509.627 271.948 508.134 274.56 506.286 276.963C505.215 278.356 503.893 280.789 501.888 280.69C498.785 280.538 500.88 274.43 502.363 273.236C503.16 272.593 504.033 273.285 504.131 274.148C504.264 275.334 503.858 276.959 502.706 277.539C501.492 278.15 500.561 278.077 501.495 276.5C502.061 275.545 502.397 276.596 502.629 276.129" stroke="#00ADB5" stroke-opacity="0.5" stroke-width="2" stroke-linecap="round" stroke-linejoin="round"/>
<path d="M455.306 159.664C452.71 154.959 452.863 153.615 453.455 148.879C453.781 146.272 453.906 143.723 454.565 141.158C455.745 136.57 456.128 130.391 452.434 126.697C445.165 119.428 431.628 129.766 435.727 138.988C437.287 142.498 439.983 145.097 441.93 148.407C442.711 149.735 443.148 151.174 444.164 152.415C445.137 153.605 446.346 155.086 446.346 156.563C446.346 157.811 445.974 159.429 446.857 160.532C448.076 162.056 447.642 161.272 449.447 161.272C450.688 161.272 452.518 160.286 453.519 159.486C454.233 158.914 454.617 160.567 454.617 158.975C454.617 157.608 454.177 158.745 455.076 158.745" stroke="#00ADB5" stroke-opacity="0.5" stroke-linecap="round" stroke-linejoin="round"/>
<path d="M449.562 164.029C452.019 163.297 458.819 161.661 457.245 163.685C455.346 166.126 454.534 164.903 452.204 165.421C451.012 165.685 449.851 169.363 451.17 169.441C453.055 169.552 454.305 167.016 456.224 167.016C457.972 167.016 457.846 169.315 456.799 170.13C455.415 171.206 453.824 170.05 452.893 171.726C451.422 174.374 455.441 173.943 456.582 173.321C457.731 172.694 458.824 171.715 459.67 171.151" stroke="#00ADB5" stroke-opacity="0.5" stroke-linecap="round" stroke-linejoin="round"/>
<path d="M455.306 158.918C455.275 159.118 455.242 160.468 454.703 160.468C454.412 160.468 454.279 160.292 454.014 160.44C453.702 160.613 453.409 161.021 453.111 161.26C452.848 161.47 452.067 161.444 451.917 161.706C451.672 162.135 451.175 162.37 450.711 162.421C450.109 162.488 449.887 162.79 449.246 162.648C449.051 162.604 449.031 162.479 448.848 162.479C448.565 162.479 448.442 162.614 448.229 162.377C447.992 162.114 447.606 161.991 447.492 161.592C447.337 161.049 446.768 160.764 447.61 161.1" stroke="#00ADB5" stroke-opacity="0.5" stroke-linecap="round" stroke-linejoin="round"/>
<path d="M444.221 136.174C445.249 136.179 446.098 136.246 446.448 137.335C446.686 138.077 446.691 138.805 446.691 139.575C446.691 140.324 446.231 140.926 446.231 141.63C446.231 142.561 446.976 142.409 447.606 142.693C448.202 142.961 448.633 143.184 448.956 143.784C449.276 144.377 449.034 145.525 448.991 146.171C448.954 146.726 448.69 147.906 449.074 148.375C449.283 148.63 450.423 149.024 449.677 148.465" stroke="#00ADB5" stroke-opacity="0.5" stroke-linecap="round" stroke-linejoin="round"/>
<path d="M435.548 146.569C434.725 147.116 433.887 147.574 432.967 147.919C432.581 148.064 432.073 148.322 432.16 147.718" stroke="#00ADB5" stroke-opacity="0.5" stroke-linecap="round" stroke-linejoin="round"/>
<path d="M432.562 138.643C431.104 138.995 429.655 139.39 428.21 139.779C427.969 139.844 428.521 139.236 428.542 139.218" stroke="#00ADB5" stroke-opacity="0.5" stroke-linecap="round" stroke-linejoin="round"/>
<path d="M432.16 131.12C430.65 130.9 429.144 130.628 427.642 130.36C426.95 130.237 426.657 130.328 427.048 129.741" stroke="#00ADB5" stroke-opacity="0.5" stroke-linecap="round" stroke-linejoin="round"/>
<path d="M440.315 123.136C439.122 122.927 438.088 122.725 437.01 122.185C436.505 121.933 436.019 121.63 435.491 121.426C434.863 121.184 434.85 121.258 435.548 120.839" stroke="#00ADB5" stroke-opacity="0.5" stroke-linecap="round" stroke-linejoin="round"/>
<path d="M450.711 117.967C450.885 119.186 450.828 119.916 450.335 121.021C450.069 121.616 449.844 122.369 449.713 123.012C449.667 123.233 449.642 123.359 449.492 123.526C449.436 123.588 449.642 122.848 449.677 122.734" stroke="#00ADB5" stroke-opacity="0.5" stroke-linecap="round" stroke-linejoin="round"/>
<path d="M459.498 122.849C459.117 124.118 458.574 125.336 458.248 126.608C458.083 127.251 458.186 127.29 458.465 126.64" stroke="#00ADB5" stroke-opacity="0.5" stroke-linecap="round" stroke-linejoin="round"/>
<path d="M463.174 131.981C461.869 133.11 460.799 134.512 459.786 135.899C459.659 136.073 459.512 136.135 459.371 136.276C459.051 136.596 459.603 135.873 459.671 135.772" stroke="#00ADB5" stroke-opacity="0.5" stroke-linecap="round" stroke-linejoin="round"/>
<path d="M170.734 247.189C172.644 255.791 174.794 264.412 176.057 273.144C176.763 278.022 175.213 270.983 175.021 269.988C174.604 267.834 174.126 265.926 174.126 263.723C174.126 259.29 174.007 254.807 173.678 250.369C173.448 247.262 169.632 238.011 174.455 245.729C179.374 253.598 182.846 262.299 186.185 270.883C186.645 272.066 187.282 273.187 187.786 274.322C188.062 274.942 182.899 269.896 180.909 268.811" stroke="#00ADB5" stroke-opacity="0.5" stroke-width="2" stroke-linecap="round" stroke-linejoin="round"/>
<path d="M167.766 266.267C173.278 264.067 185.431 259.919 188.964 253.737C190.444 251.147 190.156 252.344 185.996 253.124" stroke="#00ADB5" stroke-opacity="0.5" stroke-width="2" stroke-linecap="round" stroke-linejoin="round"/>
<path d="M184.301 237.438C188.554 245.858 191.635 254.824 192.803 264.171C192.911 265.037 193.112 265.987 193.722 266.597C193.835 266.71 191.682 262.679 191.084 261.603" stroke="#00ADB5" stroke-opacity="0.5" stroke-width="2" stroke-linecap="round" stroke-linejoin="round"/>
<path d="M184.301 237.014C187.599 238.99 199.713 246.287 191.814 250.934C191.121 251.342 190.308 251.718 189.812 252.371C188.762 253.752 188.636 254.157 189.388 252.276" stroke="#00ADB5" stroke-opacity="0.5" stroke-width="2" stroke-linecap="round" stroke-linejoin="round"/>
<path d="M195.323 232.775C196.728 242.293 199.139 252.752 199.139 262.451C199.139 264.592 198.781 260.627 198.291 259.484" stroke="#00ADB5" stroke-opacity="0.5" stroke-width="2" stroke-linecap="round" stroke-linejoin="round"/>
<path d="M205.074 249.733C207.402 256.671 208.598 260.76 201.777 262.781C199.446 263.472 202.262 260.086 202.86 259.672C204.901 258.259 206.933 253.711 204.65 251.428C203.742 250.52 201.568 251.667 200.929 250.581C199.986 248.979 202.098 245.945 203.378 245.163C207.059 242.914 206.596 246.084 205.074 245.069" stroke="#00ADB5" stroke-opacity="0.5" stroke-width="2" stroke-linecap="round" stroke-linejoin="round"/>
<path d="M332.425 120.985C333.831 128.379 339.616 149.97 336.25 143.238C335.888 142.513 335.585 141.898 335.555 141.075C335.442 138.03 335.215 134.847 334.164 131.957C333.285 129.54 333.469 127.034 333.469 124.462C333.469 123.947 332.593 119.892 332.677 119.865C333.562 119.57 337.213 124.006 337.873 124.771C341.211 128.639 344.586 133.084 346.971 137.617C348.199 139.95 348.569 140.786 345.638 141.152" stroke="#00ADB5" stroke-opacity="0.5" stroke-width="2" stroke-linecap="round" stroke-linejoin="round"/>
<path d="M332.078 135.936C335.341 134.281 338.449 132.958 341.814 131.764" stroke="#00ADB5" stroke-opacity="0.5" stroke-width="2" stroke-linecap="round" stroke-linejoin="round"/>
<path d="M341.466 121.333C344.807 126.337 347.989 131.663 351.878 136.284C352.433 136.943 353.597 138.14 353.597 136.593C353.597 134.482 352.428 132.3 351.897 130.296C351.049 127.09 350.259 123.869 349.541 120.637C348.847 117.517 349.336 118.682 350.507 121.024C352.447 124.903 354.489 128.437 357.19 131.88C359.01 134.199 359.199 132.908 359.199 130.875C359.199 127.184 357.397 124.148 356.07 120.83C354.652 117.286 354.747 112.448 353.134 109.221C352.506 107.966 352.419 111.943 352.245 113.335" stroke="#00ADB5" stroke-opacity="0.5" stroke-width="2" stroke-linecap="round" stroke-linejoin="round"/>
<path d="M360.242 108.815C360.331 109.224 361.626 119.347 363.913 118.203C364.915 117.702 365.16 116.169 366.192 115.653C367.864 114.818 369.671 116.298 370.326 117.74C372.059 121.552 370.064 125.967 366.926 128.287C362.579 131.5 364.067 125.716 364.067 124.114" stroke="#00ADB5" stroke-opacity="0.5" stroke-width="2" stroke-linecap="round" stroke-linejoin="round"/>
<path d="M362.329 108.12C361.703 109.83 360.565 117.768 360.223 114.688C360.012 112.786 360.387 111.34 360.59 109.511C361.072 105.172 364.393 108.662 363.024 106.381" stroke="#00ADB5" stroke-opacity="0.5" stroke-width="2" stroke-linecap="round" stroke-linejoin="round"/>
<path d="M339.14 336.508C339.024 336.295 334.008 327.657 334.442 327.408C335.044 327.064 336.167 327.399 336.876 327.133C338.969 326.348 340.655 324.728 342.378 323.388C344.19 321.978 346.672 333.036 347.224 335.365C347.891 338.183 349.629 341.929 346.377 343.555C343.446 345.021 339.589 344.578 336.389 344.507C331.168 344.391 327.56 335.821 326.951 331.556C326.507 328.451 322.207 318.483 326.824 316.489C328.06 315.955 330.16 316.32 331.501 316.32C333.419 316.32 335.094 315.177 337.045 315.177C340.149 315.177 341.088 319.055 338.378 314.796" stroke="#00ADB5" stroke-opacity="0.5" stroke-width="2" stroke-linecap="round" stroke-linejoin="round"/>
<path d="M347.901 317.843C348.442 319.815 350.183 330.762 354.757 327.959C355.628 327.425 356.261 326.131 356.577 325.208C357.42 322.742 357.597 320.683 355.709 318.796C354.295 317.381 351.564 314.494 349.509 314.415C344.413 314.219 348.909 319.927 348.282 318.986" stroke="#00ADB5" stroke-opacity="0.5" stroke-width="2" stroke-linecap="round" stroke-linejoin="round"/>
<path d="M348.663 300.321C352.425 306.27 358.102 312.812 360.386 319.663C360.677 320.537 360.688 321.131 361.233 321.949C362.055 323.182 362.444 324.972 363.222 323.091C364.349 320.368 366.917 317.951 368.936 315.854C371.426 313.268 371.767 314.034 367.327 314.034" stroke="#00ADB5" stroke-opacity="0.5" stroke-width="2" stroke-linecap="round" stroke-linejoin="round"/>
<path d="M374.946 298.417C374.473 299.484 367.297 313.685 374.226 310.458C375.605 309.816 377.011 308.817 376.829 307.178C376.653 305.598 375.334 304.356 374.649 302.988C374.263 302.214 372.717 298.489 373.253 299.559C374.844 302.741 376.98 308.408 379.347 310.775C382.105 313.533 383.757 310.635 381.04 309.082" stroke="#00ADB5" stroke-opacity="0.5" stroke-width="2" stroke-linecap="round" stroke-linejoin="round"/>
<path d="M379.136 299.94C389.738 316.758 376.322 297.888 379.411 294.586C382.4 291.391 385.931 297.527 387.05 299.475C388.999 302.868 390.918 311.671 387.897 302.607" stroke="#00ADB5" stroke-opacity="0.5" stroke-width="2" stroke-linecap="round" stroke-linejoin="round"/>
<path d="M392.468 285.466C392.288 286.101 386.601 302.105 390.859 300.618C392.669 299.986 394.486 298.555 395.451 296.914C396.565 295.02 397.084 292.423 396.277 290.333C395.726 288.908 395.131 287.386 394.372 286.058C392.569 282.904 397.428 292.652 398.88 295.983C401.006 300.86 406.128 317.959 394.055 314.563C388.789 313.082 393.748 304.892 393.229 304.892" stroke="#00ADB5" stroke-opacity="0.5" stroke-width="2" stroke-linecap="round" stroke-linejoin="round"/>
<path d="M242.549 206.765C244.442 206.245 246.056 205.721 247.387 204.223C247.912 203.633 247.983 202.879 248.251 202.164C248.6 201.235 248.166 200.046 247.868 199.154C247.631 198.441 248.93 198.041 249.394 198.011C250.191 197.96 250.801 198.467 251.567 198.512C252.488 198.566 253.47 198.861 254.109 199.58C254.542 200.067 255.123 200.182 255.602 200.605C256.057 201.006 256.416 201.706 256.745 202.22C257.697 203.707 257.966 205.442 258.243 207.143C258.375 207.959 258.456 208.846 258.318 209.67C258.154 210.654 258.329 211.6 257.94 212.543C257.672 213.194 257.243 214.057 256.632 214.442C256.005 214.837 255.422 214.979 255.262 215.798C254.927 217.508 255.786 219.183 255.455 220.909C255.162 222.442 253.136 222.676 251.884 222.922C251.019 223.091 249.448 223.356 248.615 222.903C247.063 222.059 245.939 221.005 244.788 219.662C243.769 218.472 243.383 216.733 243.248 215.212C243.111 213.659 243.109 211.973 243.144 210.403C243.167 209.361 243.471 208.314 243.569 207.275C243.65 206.425 243.92 206.357 243.484 207.445" stroke="#00ADB5" stroke-opacity="0.5" stroke-linecap="round" stroke-linejoin="round"/>
<path d="M253.519 199.027C254.158 197.378 254.861 195.73 255.352 194.029C255.572 193.265 255.625 192.455 255.9 191.709C256.219 190.842 256.377 189.862 256.514 188.955C256.612 188.305 256.66 187.154 257.255 186.744C257.69 186.445 257.938 185.762 258.403 185.402C259.001 184.941 259.851 184.512 260.274 183.895C260.69 183.29 261.134 182.04 260.784 181.34C260.59 180.951 260.617 180.532 260.425 180.149C260.176 179.651 259.952 179.247 259.764 178.708C259.599 178.237 259.08 177.295 259.684 176.96C261.159 176.141 261.262 177.431 261.72 178.609C261.956 179.218 261.992 179.961 262.211 180.593C262.361 181.026 262.627 180.713 262.83 180.962C263.136 181.336 263.151 181.804 263.383 182.209C263.729 182.815 263.322 184.044 263.146 184.637C262.821 185.735 262.486 186.729 262.003 187.783C260.76 190.499 258.734 192.786 257.345 195.418C256.816 196.419 256.393 197.428 256.136 198.536C255.989 199.165 255.559 199.765 255.559 200.43C255.559 201.037 255.409 201.348 255.729 200.387" stroke="#00ADB5" stroke-opacity="0.5" stroke-linecap="round" stroke-linejoin="round"/>
<path d="M260.151 178.534C259.068 178.7 257.887 178.763 256.92 179.247C256.787 179.313 256.993 179.14 257.09 179.129C258.386 178.976 259.802 177.82 260.983 177.258C261.861 176.84 263.062 175.898 264.063 175.898C264.353 175.898 263.099 176.705 262.957 176.833" stroke="#00ADB5" stroke-opacity="0.5" stroke-linecap="round" stroke-linejoin="round"/>
<path d="M259.046 180.404C260.251 179.704 262.35 178.944 263.231 177.768C263.317 177.654 263.38 177.5 263.505 177.428C263.943 177.178 263.169 177.457 263.042 177.513" stroke="#00ADB5" stroke-opacity="0.5" stroke-linecap="round" stroke-linejoin="round"/>
<path d="M259.896 181.51C261.342 180.956 263.986 180.464 264.781 178.874C264.896 178.644 264.641 178.704 264.488 178.704" stroke="#00ADB5" stroke-opacity="0.5" stroke-linecap="round" stroke-linejoin="round"/>
<path d="M261.427 181.34C261.334 183.29 261.354 185.273 260.241 186.943C259.698 187.757 259.322 188.299 259.131 189.253C258.927 190.272 258.703 191.123 258.238 192.054C257.779 192.972 257.24 193.724 256.788 194.605C256.553 195.062 255.976 195.502 256.088 196.051C256.145 196.328 256.008 196.576 255.918 196.835C255.653 197.603 255.156 198.279 254.69 198.942C254.374 199.392 254.378 200.2 254.794 199.367" stroke="#00ADB5" stroke-opacity="0.5" stroke-linecap="round" stroke-linejoin="round"/>
<path d="M254.539 197.071C255.306 197.238 256.473 197.751 257.26 197.751C257.274 197.751 256.591 196.927 256.495 196.816" stroke="#00ADB5" stroke-opacity="0.5" stroke-linecap="round" stroke-linejoin="round"/>
<path d="M255.049 193.585C256.134 194.048 257.221 194.507 258.299 194.988C258.552 195.1 258.537 195.117 258.45 195.03C258.264 194.843 258.105 194.641 257.94 194.435" stroke="#00ADB5" stroke-opacity="0.5" stroke-linecap="round" stroke-linejoin="round"/>
<path d="M256.07 191.289C257.377 191.695 258.682 192.133 260.005 192.489C260.153 192.529 260.36 192.608 260.217 192.46C259.932 192.165 259.604 191.905 259.301 191.629" stroke="#00ADB5" stroke-opacity="0.5" stroke-linecap="round" stroke-linejoin="round"/>
<path d="M256.75 188.398C258.238 189.125 259.72 189.909 261.247 190.557C261.498 190.663 261.582 190.741 261.531 190.542C261.461 190.273 261.357 190.018 261.257 189.758" stroke="#00ADB5" stroke-opacity="0.5" stroke-linecap="round" stroke-linejoin="round"/>
<path d="M258.62 186.357C258.756 186.422 262.873 188.655 262.532 187.802" stroke="#00ADB5" stroke-opacity="0.5" stroke-linecap="round" stroke-linejoin="round"/>
<path d="M259.471 184.996C260.713 185.288 261.969 185.554 263.212 185.762" stroke="#00ADB5" stroke-opacity="0.5" stroke-linecap="round" stroke-linejoin="round"/>
<path d="M260.832 183.636C261.399 183.663 261.965 183.691 262.532 183.721" stroke="#00ADB5" stroke-opacity="0.5" stroke-linecap="round" stroke-linejoin="round"/>
<path d="M249.607 209.146C249.016 209.381 245.377 210.286 245.355 211.291C245.347 211.684 245.355 212.077 245.402 212.467C245.549 213.678 246.392 214.312 247.424 214.891C248.737 215.626 250.151 215.649 251.582 215.231C252.942 214.833 253.826 213.329 253.282 212.037C253.169 211.769 253.56 211.715 253.306 211.404C253.059 211.102 252.896 211.277 252.498 211.357" stroke="#00ADB5" stroke-opacity="0.5" stroke-linecap="round" stroke-linejoin="round"/>
<path d="M247.821 212.292C248.498 210.581 249.342 208.87 249.735 207.063C249.837 206.589 249.964 206.191 250.221 205.764C250.763 204.86 251.241 203.895 251.563 202.891C251.868 201.938 251.888 200.998 252.29 200.066C252.434 199.734 253.291 198.737 252.923 199.197" stroke="#00ADB5" stroke-opacity="0.5" stroke-linecap="round" stroke-linejoin="round"/>
<path d="M254.539 200.047C254.223 202.017 253.749 203.902 253.415 205.849C253.229 206.928 252.923 207.83 252.923 208.967C252.923 209.779 253.213 210.457 253.027 211.272C252.813 212.21 252.62 211.748 252.243 211.102" stroke="#00ADB5" stroke-opacity="0.5" stroke-linecap="round" stroke-linejoin="round"/>
<path d="M253.689 200.047C253.097 201.277 251.818 203.299 251.818 204.852C251.818 205.735 251.875 206.672 251.813 207.568C251.74 208.634 250.908 210.015 250.41 210.932C250.245 211.236 250.03 211.471 249.928 211.801C249.801 212.213 249.892 212.238 249.607 211.782" stroke="#00ADB5" stroke-opacity="0.5" stroke-linecap="round" stroke-linejoin="round"/>
<path d="M247.566 210.507C249.014 211.543 251.571 213.657 253.349 211.829C253.626 211.544 254.026 210.936 254.18 210.573C254.39 210.076 253.71 210.498 253.263 210.592" stroke="#00ADB5" stroke-opacity="0.5" stroke-linecap="round" stroke-linejoin="round"/>
<path d="M249.267 208.976C250.093 208.95 251.762 209.173 252.564 208.759C252.591 208.745 252.503 208.768 252.479 208.787C252.4 208.85 252.236 208.747 252.158 208.721" stroke="#00ADB5" stroke-opacity="0.5" stroke-linecap="round" stroke-linejoin="round"/>
<path d="M250.202 205.83C250.808 205.99 253.001 206.924 253.093 205.915" stroke="#00ADB5" stroke-opacity="0.5" stroke-linecap="round" stroke-linejoin="round"/>
<path d="M251.223 203.279C251.974 203.769 255.023 206.04 254.539 203.619" stroke="#00ADB5" stroke-opacity="0.5" stroke-linecap="round" stroke-linejoin="round"/>
<path d="M252.073 202.088C252.838 202.287 253.603 202.485 254.369 202.683" stroke="#00ADB5" stroke-opacity="0.5" stroke-linecap="round" stroke-linejoin="round"/>
<path d="M255.814 202.088C256.761 202.98 258.65 205.054 258.706 206.614C258.751 207.886 258.706 209.116 258.706 210.403C258.706 211.339 258.884 212.338 258.791 213.228C258.668 214.396 256.874 214.411 257.303 215.783C257.446 216.242 257.321 216.513 257.723 216.842C258.07 217.125 258.322 217.455 258.45 217.905C258.751 218.955 258.153 219.903 257.43 220.626C256.978 221.078 256.391 221.987 255.857 222.284C255.593 222.43 255.054 222.326 254.751 222.326C254.471 222.326 253.904 222.509 253.651 222.624C253.278 222.794 252.802 222.494 252.328 222.667" stroke="#00ADB5" stroke-opacity="0.5" stroke-linecap="round" stroke-linejoin="round"/>
<path d="M242.549 207.02C242.892 208.159 243.147 209.106 243.721 210.081C243.956 210.482 243.924 210.846 243.82 211.314C243.699 211.859 243.301 213.136 243.612 213.695C244.09 214.555 244.08 215.465 244.08 216.417C244.08 217.334 245.513 217.732 245.984 218.202C246.682 218.901 246.379 219.792 247.528 220.097C247.78 220.163 248.173 220.167 248.369 220.328C248.518 220.45 248.693 220.755 248.889 220.791C249.294 220.865 249.836 220.784 250.202 220.947C250.508 221.083 250.731 221.279 251.01 221.434C251.317 221.604 251.738 221.412 252.073 221.58C253.216 222.152 252.706 221.608 251.903 220.966" stroke="#00ADB5" stroke-opacity="0.5" stroke-linecap="round" stroke-linejoin="round"/>
<path d="M157.926 164.311C155.654 167.219 145.898 178.853 154.211 181.486C156.791 182.303 160.148 180.424 162.929 180.696C166.861 181.079 169.072 184.422 170.039 187.893C171.153 191.89 165.007 198.998 167.962 201.147C173.022 204.827 180.31 198.604 184.492 203.546C186.862 206.347 184.37 210.417 185.838 203.809" stroke="#00ADB5" stroke-opacity="0.5" stroke-linecap="round" stroke-linejoin="round"/>
<path d="M272.041 119.02C274.231 121.922 279.443 128.459 281.404 132.186C283.072 135.359 280.969 135.232 279.18 133.971C277.04 132.464 277.341 129.258 277.951 127.037C280.013 119.541 293.356 112.649 294.862 124.17C295.391 128.217 291.774 135.021 286.846 133.415C280.339 131.295 280.754 121.365 285.675 117.675C290.709 113.899 298.958 118.237 298.958 124.404C298.958 131.25 290.821 133.37 287.665 127.33C284.796 121.84 289.879 116.097 295.33 115.275C297.335 114.973 302.514 117.289 298.9 118.494" stroke="#00ADB5" stroke-opacity="0.5" stroke-linecap="round" stroke-linejoin="round"/>
<path d="M382.108 171.158C378.698 174.546 367.921 182.447 376.988 185.523C382.264 187.313 387.148 184.379 390.418 180.374C394.025 175.955 394.637 168.966 388.896 166.096C384.431 163.864 380.584 160.278 376.842 165.891" stroke="#00ADB5" stroke-opacity="0.5" stroke-linecap="round" stroke-linejoin="round"/>
<path d="M498.496 217.502C491.984 221.381 482.096 226.066 492.176 229.732C493.726 230.295 494.734 229.928 496.097 228.971C501.136 225.43 501.432 224.012 501.129 218.555C500.929 214.942 495.645 215.768 493.23 216.975C489.667 218.756 487.183 222.321 485.74 225.928C483.798 230.782 493.835 230.485 495.219 224.641C496.087 220.977 491.896 215.773 489.017 220.252C485.201 226.187 491.023 231.494 494.693 225.285C498.207 219.337 489.995 216.884 487.788 223.822C484.885 232.944 502.139 223.039 495.863 219.901C492.122 218.031 485.805 229.908 492.703 226.952C501.078 223.363 491.708 218.073 491.708 226.455C491.708 233.257 502.958 223.385 495.629 220.72C493.953 220.111 492.299 225.466 493.493 226.66C495.569 228.736 499.178 223.359 498.993 221.423C498.202 213.112 490.066 234.241 499.754 224.553C501.967 222.34 501.876 218.34 498.203 220.691C496.036 222.078 494.665 227.966 498.759 226.601C502.692 225.29 502.691 218.007 498.467 219.696C495.889 220.728 494.955 224.377 492.176 223.822" stroke="#00ADB5" stroke-opacity="0.5" stroke-linecap="round" stroke-linejoin="round"/>
<path d="M441.619 271.746C440.532 272.946 423.179 294.357 431.905 283.449C433.901 280.954 435.734 278.5 438.459 276.749C440.138 275.669 441.756 275.003 443.199 273.56C444.775 271.983 442.54 272.087 442.175 275.374C441.857 278.236 442.1 290.733 441.619 290.705C438.366 290.514 436.233 287.312 433.222 286.258C431.609 285.693 426.826 286.506 428.16 285.438C431.422 282.829 441.413 275.346 438.459 278.3C436.221 280.537 431.622 288.947 433.193 286.199C434.309 284.245 437.328 277.879 436.879 278.943C435.953 281.136 434.342 284.893 434.48 287.311C434.611 289.606 439.17 283.958 439.454 283.39C441.567 279.164 437.195 288.668 438.752 286.404C440.154 284.364 444.894 279.179 441.502 284.268C440.759 285.382 445.016 280.244 444.252 281.342C444.03 281.661 442.101 284.898 443.228 283.771C447.266 279.733 441.316 283.931 440.565 282.805" stroke="#00ADB5" stroke-opacity="0.5" stroke-linecap="round" stroke-linejoin="round"/>
<path d="M406.334 359.168C408.177 356.543 418.712 344.961 410.05 344.451C408.586 344.365 405.567 343.89 404.344 344.89C401.437 347.269 402.698 353.685 406.627 354.399C411.837 355.346 416.719 348.222 411.074 345.475C405.176 342.606 391.254 354.131 397.264 358.875C409.097 368.217 419.797 341.07 404.491 344.978C390.607 348.523 402.838 362.823 409.143 353.609C415.893 343.744 395.079 343.659 398.756 354.692C400.57 360.133 406.523 357.507 407.592 353.112C409.159 346.668 402.751 349.329 402.648 353.785C402.536 358.56 409.894 349.92 405.486 350.303C402.3 350.58 401.985 354.955 399.488 354.955" stroke="#00ADB5" stroke-opacity="0.5" stroke-linecap="round" stroke-linejoin="round"/>
<path d="M196.732 309.664C197.795 314.489 199.891 329.088 199.891 324.146C199.891 320.735 197.286 317.552 196.761 314.14C196.577 312.948 196.956 309.422 195.942 308.611C195.248 308.056 201.806 313.16 203.549 314.14C206.729 315.929 209.009 319.271 211.77 315.72C213.096 314.016 216.996 313.78 217.534 313.35C221.433 310.231 221.076 305.575 221.981 301.501C222.304 300.048 221.484 306.462 221.484 308.347C221.484 310.759 221.919 313.953 222.566 316.218C223.485 319.434 223.117 310.357 222.244 308.611C220.826 305.774 220.957 303.257 220.957 300.184C220.957 298.971 229.761 314.179 228.213 315.34C227.566 315.825 218.945 313.447 216.334 314.287C214.085 315.01 212.031 315.853 209.898 316.92C209.314 317.211 208.352 318.273 208.727 317.973C210.064 316.903 214.155 313.979 212.531 314.521C210.299 315.265 208.108 317.424 206.094 318.617C202.298 320.866 201.07 320.552 199.482 324.41C199.253 324.966 202.086 324.895 202.642 325.053C206.627 326.192 209.132 323.088 212.648 321.66C217.186 319.816 222.403 316.03 227.277 315.457C230.955 315.024 225.362 313.734 225.17 313.35" stroke="#00ADB5" stroke-opacity="0.5" stroke-linecap="round" stroke-linejoin="round"/>
<path d="M397.908 106.908C407.833 103.726 423.908 100.067 432.783 92.8056C434.393 91.488 436.887 90.2249 436.323 87.6855C434.203 78.1454 429.59 75.908 420.495 76.9186C415.45 77.4792 410.607 82.1327 405.924 84.0283C401.103 85.9798 396.279 88.5438 391.881 91.3427C387.429 94.1755 390.008 95.5788 390.008 100.471C390.008 103.161 391.615 106.908 394.484 106.908C395.792 106.908 399.541 105.855 395.83 105.855C392.918 105.855 388.397 106.296 385.795 104.918C383.808 103.866 387.73 101.795 388.662 101.671C391.991 101.227 384.848 104.483 384.127 104.714C382.645 105.188 389.476 100.011 385.678 101.232C381.561 102.555 387.671 99.0064 388.955 98.3646C390.404 97.6401 389.14 98.7871 389.481 98.189C390.028 97.2321 393.193 93.7164 390.33 96.5798C389.371 97.5385 392.494 94.9448 393.548 94.0929C395.535 92.4886 393.014 94.9227 392.524 95.3218C390.265 97.1605 389.736 95.6768 387.901 96.4921C387.135 96.8329 385.268 97.9632 385.268 96.6384C385.268 94.3526 393.333 93.3114 394.806 93.2445C403.827 92.8344 410.14 88.8553 418.447 86.7785C422.444 85.7791 426.813 84.3398 430.559 82.5654C433.338 81.2494 438.903 77.1292 441.853 77.9719C443.012 78.3031 425.129 88.7084 430.267 85.3156C434.517 82.5091 439.39 80.5383 433.017 85.813C427.911 90.0386 436.893 85.1166 437.61 85.4034C438.898 85.9185 429.681 91.183 436.703 87.9488C439.389 86.7119 441.619 86.6508 441.619 83.7357C441.619 79.7787 442.701 75.0887 437.669 76.9186C431.862 79.0303 427.201 83.5438 421.197 85.3156C417.058 86.537 413.025 88.0795 408.967 89.5287C404.258 91.2104 395.735 93.0908 392.378 97.1943C390.589 99.3811 387.402 107.904 393.987 104.216C400.028 100.833 400.989 93.9889 404.227 88.5925C405.836 85.9121 401.425 94.2537 400.775 97.3113C400.028 100.828 403.337 104.875 407.124 104.216C411.278 103.494 415.647 97.7573 417.13 94.2685C424.257 77.4999 411.33 93.7638 414.994 97.4283C418.883 101.317 424.809 91.0151 425.585 88.4755C426.52 85.4154 427.07 81.6434 428.189 78.7326C429.641 74.9575 420.371 79.2093 419.5 79.6396C414.678 82.0227 411.311 85.2016 408.031 89.4117C406.843 90.9356 402.077 98.1087 405.339 99.7397C409.711 101.925 415.077 95.1316 415.199 91.606C415.611 79.663 405.777 85.7839 399.839 90.465C396.169 93.3575 399.357 99.1387 400.014 98.4816" stroke="#00ADB5" stroke-opacity="0.5" stroke-linecap="round" stroke-linejoin="round"/>
<path d="M264.668 392.346C264.439 392.529 255.774 400.003 255.774 397.876C255.774 396.63 256.733 395.296 257.588 394.482C259.278 392.872 265.954 391.634 264.346 395.565C263.268 398.201 258.86 402.087 257.617 397.115C257.101 395.051 260.644 390.908 262.796 392.668C265.168 394.609 260.068 397.082 258.465 396.208C255.604 394.647 259.04 389.09 261.801 390.24C264.688 391.443 260.717 394.731 259.402 395.389C256.326 396.927 256.756 394.441 255.189 392.873" stroke="#00ADB5" stroke-opacity="0.5" stroke-linecap="round" stroke-linejoin="round"/>
<path d="M121.949 391.82C124.985 396.822 130.767 402.013 124.875 406.566C123.355 407.74 114.39 412.435 114.927 406.975C115.581 400.326 125.49 400.178 126.103 394.219C126.71 388.325 112.635 390.546 109.427 386.553C107.417 384.052 105.796 378.509 106.267 375.318C106.45 374.075 109.602 371.663 109.28 373.914C108.692 378.034 95.4067 388.588 103.282 392.054C108.563 394.377 109.925 388.494 113.815 387.08C121.828 384.166 109.836 405.777 109.836 400.246" stroke="#00ADB5" stroke-opacity="0.5" stroke-linecap="round" stroke-linejoin="round"/>
<path d="M380.002 460.283C377.563 466.054 372.629 483.84 372.629 477.574C372.629 476.597 372.818 475.825 373.156 474.912C374.741 470.621 376.577 466.628 379.241 462.857C380.696 460.799 382.429 454.772 384.508 459.346C385.478 461.48 388.253 467.422 387.082 469.762C385.614 472.7 381.054 474.385 378.013 474.502C377.22 474.532 368.913 475.624 371.605 473.156C374.769 470.256 377.83 461.436 382.606 460.839C383.343 460.746 384.884 461.239 385.532 461.599C386.673 462.233 385.283 463.378 384.742 464.262C384.093 465.322 378.959 472.483 378.949 472.161C378.803 467.362 383.727 460.395 386.38 456.772C387.332 455.473 382.269 464.291 381.114 466.281C380.22 467.82 381.386 471.092 377.369 470.289" stroke="#00ADB5" stroke-opacity="0.5" stroke-linecap="round" stroke-linejoin="round"/>
<path d="M216.744 36.8648C214.394 46.0569 212.301 54.8151 211.448 64.1915C211.363 65.1294 210.77 65.7358 211.36 66.4736C212.239 67.5717 214.562 60.5897 215.457 58.7203C218.29 52.7949 221.484 50.4566 221.484 43.1844C221.484 42.1351 221.484 36.0956 221.484 40.0831C221.484 43.4685 222.125 46.8144 221.893 50.2063C221.718 52.77 219.257 59.6889 221.074 57.8718C223.879 55.0672 221.632 41.0049 217.241 40.639C211.248 40.1396 208.359 53.129 207.674 57.1696C206.877 61.8708 210.192 63.839 213.847 60.1832C218.837 55.1934 219.919 44.9347 215.632 39.0884C209.742 31.0564 205.877 45.5488 205.392 49.0945C204.295 57.1151 208.775 59.6853 214.081 53.9806C216.033 51.8824 219.968 48.2543 219.143 44.9984C218.045 40.6676 211.644 44.8731 210.366 46.7539C208.553 49.4209 208.577 56.064 211.507 57.9596C214.242 59.7295 216.904 52.3957 216.598 50.5574C215.298 42.7611 200.602 55.1374 207.908 59.5688C214.267 63.4256 218.482 46.1709 210.658 48.3046C208.48 48.8987 203.305 54.7705 207.791 54.7705" stroke="#00ADB5" stroke-opacity="0.5" stroke-linecap="round" stroke-linejoin="round"/>
<path d="M77.1844 186.957C74.8179 193.662 73.1142 197.942 67.1198 201.703C65.6147 202.647 63.6257 204.318 63.3163 206.209C62.6552 210.249 69.0278 214.701 72.6495 213.494C80.2807 210.95 68.733 203.397 67.5001 201.205C65.3535 197.389 73.1119 190.534 76.687 192.545C79.4699 194.111 80.7036 199.566 79.0569 202.229C76.6581 206.11 71.5021 206.263 67.4709 205.653C64.2604 205.166 57.8296 205.828 59.7176 210.597C62.08 216.565 73.2299 213.437 74.9023 208.374C76.5306 203.444 67.7155 201.586 69.6067 196.963C70.9057 193.788 75.0073 189.824 78.6473 189.824C83.0074 189.824 78.6532 197.969 78.0036 199.245C75.1353 204.883 70.7467 205.445 65.1888 206.969C54.7281 209.837 65.9973 210.241 66.6516 206.969" stroke="#00ADB5" stroke-opacity="0.5" stroke-linecap="round" stroke-linejoin="round"/>
<path d="M64.545 259.107C63.427 263.316 60.1217 270.501 60.4489 275.081C60.6022 277.228 61.1885 270.84 61.4436 268.703C61.9297 264.632 62.4858 260.034 64.662 256.473C65.0482 255.841 73.9802 266.991 74.7852 268.82C76.9395 273.716 74.2423 272.784 70.8646 274.379C68.9874 275.266 56.1772 279.787 56.1772 278.592C56.1772 277.34 58.5923 274.795 59.1615 273.735C60.9434 270.42 62.8551 266.258 63.6087 262.559C65.2182 254.658 64.0183 270.917 64.0183 272.155C64.0183 272.907 64.3104 277.305 62.5554 277.305C60.359 277.305 64.0403 273.171 64.779 271.102C65.5624 268.909 68.6807 262.444 67.9096 260.131C66.8175 256.854 66.2711 266.89 66.1541 270.341C66.0748 272.681 64.9428 276.586 66.7685 272.799C67.3503 271.592 69.2283 266.645 69.1969 267.006C68.9322 270.051 67.7048 273.19 67.7048 276.252C67.7048 279.385 69.3578 269.298 72.2105 268.001C72.9198 267.678 71.9179 273.625 71.9179 274.496C71.9179 276.081 73.4393 268.405 73.4393 269.99C73.4393 270.432 72.8081 273.103 72.3275 272.272C70.358 268.871 68.8762 266.768 64.8375 265.543C62.9982 264.985 57.1516 265.368 59.0738 265.368C60.3372 265.368 62.3215 260.971 63.7257 262.12C65.5888 263.644 63.0319 268.51 62.4384 270.166C61.4666 272.877 60.8581 269.064 63.2576 269.347C65.7578 269.641 63.207 278.873 64.6035 276.778C65.2516 275.806 67.2148 271.01 67.1489 271.57C65.8741 282.406 66.1394 268.608 68.2314 271.746" stroke="#00ADB5" stroke-opacity="0.5" stroke-linecap="round" stroke-linejoin="round"/>
<path d="M325.232 115.861C331.932 115.53 338.403 118.007 337.344 110.068C336.82 106.134 334.615 99.7021 335.764 95.8484C336.985 91.7569 344.476 82.5299 338.076 79.6396C332.709 77.2159 325.695 84.0698 324.705 88.7095C324.293 90.6392 324.381 96.6676 327.572 96.6676C329.984 96.6676 331.524 94.2999 333.629 96.4043C336.38 99.1553 336.871 101.665 334.916 105.123C330.224 113.424 311.661 104.152 321.662 94.1514C323.033 92.7806 328.455 86.4939 331.025 88.2999C334.56 90.7844 334.082 97.2529 332.254 100.471C330.43 103.68 323.738 107.041 321.106 102.929C319.806 100.897 320.428 99.5348 322.598 99.5348" stroke="#00ADB5" stroke-opacity="0.5" stroke-linecap="round" stroke-linejoin="round"/>
<path d="M381.337 165.146C381.955 164.896 401.221 155.385 400.325 160.611C399.844 163.415 400.165 166.031 400.559 168.832C400.71 169.904 403.321 178.253 400.705 178.253C395.831 178.253 391.073 175.805 386.193 176.732C384.17 177.116 380.141 178.502 379.991 175.269C379.878 172.844 377.864 161.945 382.653 163.01C386.601 163.887 386.772 160.754 383.97 167.72C383.572 168.709 380.957 176.14 381.395 175.795C385.776 172.353 388.179 165.735 392.191 161.722C394.697 159.217 390.402 169.273 389.88 170.529C387.214 176.947 394.028 165.09 394.795 163.917C398.163 158.766 395.606 167.987 395.088 169.505C393.53 174.068 398.319 165.548 400.237 164.414C406.593 160.658 400.588 173.63 399.242 170.939" stroke="#00ADB5" stroke-opacity="0.5" stroke-linecap="round" stroke-linejoin="round"/>
<path d="M329.445 264.373C329.747 272.114 329.612 276.337 336.174 271.453C338.036 270.068 337.245 273.346 336.788 274.145C336.026 275.48 331.555 282.189 336.057 279.616C337.197 278.965 340.27 277.665 340.27 280.172C340.27 280.568 338.892 285.412 340.241 284.063C342.451 281.853 342.491 273.521 342.611 270.283C342.637 269.576 342.946 268.754 342.318 269.113C339.09 270.957 337.557 280.615 335.881 284.385C334.435 287.64 330.264 283.805 327.865 282.279C323.318 279.385 326.177 281.44 326.285 281.225" stroke="#00ADB5" stroke-opacity="0.5" stroke-linecap="round" stroke-linejoin="round"/>
<path d="M293.107 333.363C293.087 333.608 292.469 348.726 292.58 341.379C292.614 339.137 292.549 336.893 292.58 334.65C292.667 328.281 293.804 331.236 296.559 333.86C297.822 335.063 302.457 337.66 301.708 340.092C301.488 340.809 294.048 342.104 292.872 342.55C291.991 342.884 286.787 346.161 286.787 346.002C286.787 342.089 288.165 337.854 288.63 333.948C289.615 325.677 295.338 347.818 295.71 342.228C295.798 340.912 295.74 333.077 295.74 335.031C295.74 336.485 296.793 344.241 296.793 339.156C296.793 338.005 296.793 336.854 296.793 335.703C296.793 335.161 297.089 337.758 297.29 337.254C298.02 335.43 296.793 331.762 296.793 336.23C296.793 341.246 295.387 337.634 292.317 337.634C289.69 337.634 288.186 347.26 289.537 345.007C290.721 343.035 288.389 335.002 289.42 339.127C289.96 341.286 291.257 338.899 292.053 338.103" stroke="#00ADB5" stroke-opacity="0.5" stroke-linecap="round" stroke-linejoin="round"/>
<path fill-rule="evenodd" clip-rule="evenodd" d="M290.611 277.861C288.169 276.97 285.842 275.668 283.72 273.859C267.696 260.208 274.567 239.612 284.264 228.889C293.962 218.167 353.284 222.444 325.299 272.118C325.181 272.189 325.061 272.26 324.939 272.332C321.81 282.288 324.449 290.827 327.615 301.072C328.906 305.251 330.285 309.714 331.396 314.672L301.716 312.546C293.558 301.468 290.466 290.302 290.611 277.861Z" fill="#F5B9AB"/>
<path d="M283.72 273.859L283.266 274.392L283.72 273.859ZM290.611 277.861L290.851 277.204C291.13 277.306 291.314 277.573 291.311 277.869L290.611 277.861ZM284.264 228.889L284.783 229.359L284.264 228.889ZM325.299 272.118L325.909 272.461C325.849 272.566 325.764 272.654 325.66 272.717L325.299 272.118ZM324.939 272.332L324.272 272.122C324.324 271.957 324.435 271.817 324.585 271.729L324.939 272.332ZM327.615 301.072L326.946 301.279L327.615 301.072ZM331.396 314.672L332.078 314.519C332.127 314.735 332.07 314.961 331.926 315.129C331.782 315.296 331.567 315.386 331.346 315.37L331.396 314.672ZM301.716 312.546L301.666 313.243C301.462 313.229 301.274 313.125 301.153 312.96L301.716 312.546ZM284.173 273.327C286.229 275.078 288.481 276.34 290.851 277.204L290.372 278.518C287.856 277.601 285.456 276.257 283.266 274.392L284.173 273.327ZM284.783 229.359C280.016 234.63 275.95 242.328 275.042 250.355C274.138 258.35 276.361 266.671 284.173 273.327L283.266 274.392C275.055 267.396 272.702 258.594 273.652 250.198C274.598 241.833 278.816 233.872 283.746 228.42L284.783 229.359ZM324.69 271.774C331.639 259.439 333.097 250.046 331.378 243.066C329.664 236.105 324.752 231.393 318.613 228.487C312.465 225.577 305.134 224.507 298.738 224.833C295.543 224.996 292.602 225.506 290.176 226.296C287.737 227.09 285.88 228.146 284.783 229.359L283.746 228.42C285.073 226.952 287.191 225.797 289.743 224.966C292.308 224.131 295.374 223.604 298.667 223.436C305.246 223.101 312.815 224.195 319.212 227.223C325.618 230.255 330.895 235.255 332.736 242.732C334.573 250.19 332.952 259.959 325.909 272.461L324.69 271.774ZM324.585 271.729C324.705 271.658 324.823 271.588 324.939 271.518L325.66 272.717C325.54 272.789 325.418 272.862 325.293 272.935L324.585 271.729ZM326.946 301.279C323.79 291.063 321.068 282.316 324.272 272.122L325.606 272.542C322.552 282.259 325.108 290.591 328.283 300.866L326.946 301.279ZM330.713 314.825C329.609 309.898 328.238 305.46 326.946 301.279L328.283 300.866C329.573 305.042 330.96 309.53 332.078 314.519L330.713 314.825ZM301.766 311.848L331.446 313.975L331.346 315.37L301.666 313.243L301.766 311.848ZM291.311 277.869C291.167 290.17 294.218 301.185 302.279 312.131L301.153 312.96C292.899 301.752 289.764 290.435 289.912 277.853L291.311 277.869Z" fill="black"/>
<path d="M330.624 242.12C335.268 248.582 330.266 264.541 326.575 268.532C357.158 251.563 337.796 213.276 328.36 220.258C326.822 206.103 310.58 201.108 299.507 213.08C271.747 190.662 270.286 228.862 280.085 234.671C289.883 240.48 301.771 234.948 307.94 237.944C314.11 240.939 317.917 259.085 319.915 249.014C321.914 238.943 324.818 234.044 330.624 242.12Z" fill="#00ADB5" stroke="black" stroke-width="1.39887"/>
<path d="M358.072 523.989L315.023 520.865L325.383 404.989C325.383 404.989 275.437 286.63 318.312 286.63C378.893 286.63 399.151 379.966 398.396 404.989C397.64 430.012 358.072 523.989 358.072 523.989Z" fill="#EEEEEE" stroke="black" stroke-width="1.39887"/>
<path d="M314.697 525.877L315.299 520.645L358.651 522.387L357.695 530.795C356.15 544.389 342.534 553.155 329.519 548.935C319.72 545.757 313.52 536.111 314.697 525.877Z" fill="#F5B9AB" stroke="black" stroke-width="1.39887" stroke-linejoin="round"/>
<path d="M252.211 440.602C224.208 413.451 259.008 323.516 264.684 312.813C272.947 297.561 297.75 271.028 330.852 286.912C380.909 310.932 358.035 429.78 349.037 470.978L252.211 440.602Z" fill="#EEEEEE" stroke="black" stroke-width="1.39887"/>
<path d="M34.1542 534.857L29.6416 494.065C29.6416 494.065 134.411 460.111 220.758 447.371L339.316 457.612C357.125 499.696 348.342 577.038 216.256 541.481L34.1542 534.857Z" fill="#00ADB5" stroke="black" stroke-width="1.39887"/>
<path fill-rule="evenodd" clip-rule="evenodd" d="M161.109 463.389L142.494 521.285L103.438 519.377L85.617 411.371C82.6647 393.479 96.4687 377.21 114.603 377.21L138.767 377.21L140.436 374.601L148.548 377.21C155.031 377.218 160.901 379.281 165.658 382.714L329.786 435.51C355.168 443.675 366.585 473.144 353.327 496.278L328.219 540.092C315.186 562.835 284.714 568.179 264.72 551.228L161.109 463.389Z" fill="#00ADB5"/>
<path d="M161.109 463.389L161.561 462.855L160.763 462.179L160.443 463.175L161.109 463.389ZM142.494 521.285L142.46 521.983L142.996 522.009L143.16 521.499L142.494 521.285ZM103.438 519.377L102.747 519.49L102.839 520.048L103.403 520.075L103.438 519.377ZM85.617 411.371L86.3071 411.257L85.617 411.371ZM114.603 377.21V377.91V377.21ZM138.767 377.21V377.91H139.15L139.356 377.587L138.767 377.21ZM140.436 374.601L140.651 373.935L140.138 373.77L139.847 374.224L140.436 374.601ZM148.548 377.21L148.334 377.876L148.438 377.91L148.547 377.91L148.548 377.21ZM165.658 382.714L165.249 383.281L165.339 383.346L165.444 383.38L165.658 382.714ZM329.786 435.51L330 434.844L329.786 435.51ZM353.327 496.278L353.934 496.626L353.327 496.278ZM328.219 540.092L327.612 539.744L328.219 540.092ZM264.72 551.228L265.172 550.694L264.72 551.228ZM160.443 463.175L141.828 521.07L143.16 521.499L161.775 463.603L160.443 463.175ZM142.528 520.586L103.472 518.678L103.403 520.075L142.46 521.983L142.528 520.586ZM104.128 519.263L86.3071 411.257L84.9269 411.485L102.747 519.49L104.128 519.263ZM86.3071 411.257C83.4251 393.791 96.9004 377.91 114.603 377.91L114.603 376.511C96.0369 376.511 81.9043 393.166 84.9269 411.485L86.3071 411.257ZM114.603 377.91L138.767 377.91V376.511L114.603 376.511V377.91ZM139.356 377.587L141.026 374.978L139.847 374.224L138.178 376.833L139.356 377.587ZM140.222 375.267L148.334 377.876L148.762 376.544L140.651 373.935L140.222 375.267ZM148.547 377.91C154.879 377.917 160.606 379.931 165.249 383.281L166.068 382.147C161.195 378.631 155.183 376.519 148.549 376.511L148.547 377.91ZM165.444 383.38L329.571 436.176L330 434.844L165.873 382.048L165.444 383.38ZM329.571 436.176C354.53 444.204 365.757 473.182 352.72 495.931L353.934 496.626C367.412 473.106 355.806 443.145 330 434.844L329.571 436.176ZM352.72 495.931L327.612 539.744L328.826 540.44L353.934 496.626L352.72 495.931ZM327.612 539.744C314.796 562.108 284.833 567.363 265.172 550.694L264.267 551.761C284.595 568.995 315.575 563.562 328.826 540.44L327.612 539.744ZM265.172 550.694L161.561 462.855L160.657 463.923L264.267 551.761L265.172 550.694Z" fill="black"/>
<path d="M102.988 518.936L142.926 521.298L146.022 554.825C146.022 554.825 110.986 553.809 89.7321 547.161L104.018 540.14L102.988 518.936Z" fill="#EEEEEE" stroke="black" stroke-width="1.39887" stroke-linejoin="round"/>
<rect width="97.773" height="18.3324" rx="2.00878" transform="matrix(0.258819 0.965926 0.965926 -0.258819 89.5281 274.538)" fill="#EEEEEE" stroke="black" stroke-width="1.39887"/>
<rect width="97.773" height="18.3324" rx="2.00878" transform="matrix(-1 0 0 1 208.723 359.418)" fill="#00ADB5" stroke="black" stroke-width="1.39887"/>
<path d="M29.9524 494.095L34.8922 534.877L5.0809 543.105C5.0809 543.105 -0.535751 507.966 2.18598 485.521L12.0313 498.456L29.9524 494.095Z" fill="#EEEEEE" stroke="black" stroke-width="1.39887" stroke-linejoin="round"/>
<path d="M177.994 388.615L200.366 351.338L268.96 388.689C265.815 345.582 295.402 283.546 326.471 287.325C380.976 293.953 340.821 428.301 305.116 451.983C269.41 475.664 177.994 388.615 177.994 388.615Z" fill="#EEEEEE"/>
<path d="M348.174 369.777C339.738 405.124 321.933 440.829 305.116 451.983C269.41 475.664 177.994 388.615 177.994 388.615L200.366 351.338L268.96 388.689L292.274 330.2" stroke="black" stroke-width="1.39887"/>
<path d="M196.293 348.51L200.578 351.573L178.038 388.645L171.148 383.734C160.007 375.792 158.94 359.633 168.941 350.296C176.471 343.266 187.913 342.519 196.293 348.51Z" fill="#F5B9AB" stroke="black" stroke-width="1.39887" stroke-linejoin="round"/>
</svg>
